<?xml version="1.0" encoding="UTF-8"?> <svg xmlns="http://www.w3.org/2000/svg" width="493" height="690" viewBox="0 0 493 690" fill="none"> <rect width="493" height="690" fill="#151515"></rect> <path d="M42.456 264.24V224.352H53.976C57.144 224.352 59.808 224.808 61.968 225.72C64.128 226.584 65.88 227.88 67.224 229.608C68.616 231.288 69.6 233.352 70.176 235.8C70.8 238.2 71.112 240.936 71.112 244.008C71.112 247.176 70.776 249.888 70.104 252.144C69.48 254.352 68.664 256.2 67.656 257.688C66.648 259.176 65.496 260.352 64.2 261.216C62.952 262.08 61.68 262.752 60.384 263.232C59.088 263.664 57.864 263.952 56.712 264.096C55.56 264.192 54.6 264.24 53.832 264.24H42.456ZM35.616 218.592V270H53.256C57.528 270 61.224 269.4 64.344 268.2C67.464 267 70.032 265.272 72.048 263.016C74.064 260.712 75.552 257.904 76.512 254.592C77.472 251.232 77.952 247.392 77.952 243.072C77.952 234.816 75.816 228.672 71.544 224.64C67.272 220.608 61.176 218.592 53.256 218.592H35.616ZM85.0873 232.776V270H91.2073V253.44C91.2073 251.04 91.4473 248.928 91.9273 247.104C92.4073 245.232 93.1753 243.648 94.2313 242.352C95.2873 241.056 96.6793 240.072 98.4073 239.4C100.135 238.728 102.223 238.392 104.671 238.392V231.912C101.359 231.816 98.6233 232.488 96.4633 233.928C94.3033 235.368 92.4793 237.6 90.9913 240.624H90.8473V232.776H85.0873ZM133.862 247.824H112.478C112.574 246.384 112.886 245.04 113.414 243.792C113.942 242.496 114.662 241.368 115.574 240.408C116.486 239.448 117.566 238.704 118.814 238.176C120.11 237.6 121.55 237.312 123.134 237.312C124.67 237.312 126.062 237.6 127.31 238.176C128.606 238.704 129.71 239.448 130.622 240.408C131.582 241.32 132.326 242.424 132.854 243.72C133.43 245.016 133.766 246.384 133.862 247.824ZM139.766 258.192H133.718C133.19 260.64 132.086 262.464 130.406 263.664C128.774 264.864 126.662 265.464 124.07 265.464C122.054 265.464 120.302 265.128 118.814 264.456C117.326 263.784 116.102 262.896 115.142 261.792C114.182 260.64 113.486 259.344 113.054 257.904C112.622 256.416 112.43 254.856 112.478 253.224H140.342C140.438 250.968 140.222 248.592 139.694 246.096C139.214 243.6 138.302 241.296 136.958 239.184C135.662 237.072 133.91 235.344 131.702 234C129.542 232.608 126.806 231.912 123.494 231.912C120.95 231.912 118.598 232.392 116.438 233.352C114.326 234.312 112.478 235.656 110.894 237.384C109.358 239.112 108.158 241.152 107.294 243.504C106.43 245.856 105.998 248.448 105.998 251.28C106.094 254.112 106.502 256.728 107.222 259.128C107.99 261.528 109.118 263.592 110.606 265.32C112.094 267.048 113.918 268.392 116.078 269.352C118.286 270.312 120.878 270.792 123.854 270.792C128.078 270.792 131.582 269.736 134.366 267.624C137.15 265.512 138.95 262.368 139.766 258.192ZM146.902 232.776V284.184H153.022V265.032H153.166C153.838 266.136 154.654 267.072 155.614 267.84C156.622 268.56 157.678 269.136 158.782 269.568C159.886 270 160.99 270.312 162.094 270.504C163.246 270.696 164.278 270.792 165.19 270.792C168.022 270.792 170.494 270.288 172.606 269.28C174.766 268.272 176.542 266.904 177.934 265.176C179.374 263.4 180.43 261.336 181.102 258.984C181.822 256.632 182.182 254.136 182.182 251.496C182.182 248.856 181.822 246.36 181.102 244.008C180.382 241.656 179.302 239.592 177.862 237.816C176.47 235.992 174.694 234.552 172.534 233.496C170.422 232.44 167.926 231.912 165.046 231.912C162.454 231.912 160.078 232.392 157.918 233.352C155.758 234.264 154.174 235.752 153.166 237.816H153.022V232.776H146.902ZM175.702 251.064C175.702 252.888 175.51 254.664 175.126 256.392C174.742 258.12 174.118 259.656 173.254 261C172.39 262.344 171.238 263.424 169.798 264.24C168.406 265.056 166.654 265.464 164.542 265.464C162.43 265.464 160.63 265.08 159.142 264.312C157.654 263.496 156.43 262.44 155.47 261.144C154.558 259.848 153.886 258.36 153.454 256.68C153.022 254.952 152.806 253.176 152.806 251.352C152.806 249.624 152.998 247.92 153.382 246.24C153.814 244.56 154.486 243.072 155.398 241.776C156.31 240.432 157.486 239.352 158.926 238.536C160.366 237.72 162.118 237.312 164.182 237.312C166.15 237.312 167.854 237.696 169.294 238.464C170.782 239.232 171.982 240.264 172.894 241.56C173.854 242.856 174.55 244.344 174.982 246.024C175.462 247.656 175.702 249.336 175.702 251.064ZM197.862 232.776V221.616H191.742V232.776H185.406V238.176H191.742V261.864C191.742 263.592 191.91 264.984 192.246 266.04C192.582 267.096 193.086 267.912 193.758 268.488C194.478 269.064 195.39 269.472 196.494 269.712C197.646 269.904 199.014 270 200.598 270H205.278V264.6H202.47C201.51 264.6 200.718 264.576 200.094 264.528C199.518 264.432 199.062 264.264 198.726 264.024C198.39 263.784 198.15 263.448 198.006 263.016C197.91 262.584 197.862 262.008 197.862 261.288V238.176H205.278V232.776H197.862Z" fill="#E2E3E6"></path> <path d="M406.798 264.582V260.102H408.016V270H406.798V265.702H401.492V270H400.274V260.102H401.492V264.582H406.798ZM411.49 266.752C411.518 267.079 411.583 267.382 411.686 267.662C411.798 267.933 411.947 268.171 412.134 268.376C412.32 268.581 412.549 268.745 412.82 268.866C413.1 268.978 413.422 269.034 413.786 269.034C413.963 269.034 414.145 269.02 414.332 268.992C414.528 268.955 414.71 268.899 414.878 268.824C415.046 268.74 415.195 268.633 415.326 268.502C415.456 268.371 415.554 268.213 415.62 268.026H416.838C416.754 268.381 416.609 268.689 416.404 268.95C416.208 269.211 415.97 269.426 415.69 269.594C415.419 269.762 415.116 269.888 414.78 269.972C414.444 270.047 414.103 270.084 413.758 270.084C413.17 270.084 412.656 269.991 412.218 269.804C411.788 269.617 411.429 269.361 411.14 269.034C410.85 268.698 410.636 268.301 410.496 267.844C410.356 267.377 410.286 266.869 410.286 266.318C410.286 265.767 410.36 265.263 410.51 264.806C410.668 264.339 410.892 263.938 411.182 263.602C411.471 263.266 411.826 263.005 412.246 262.818C412.666 262.631 413.165 262.538 413.744 262.538C414.332 262.538 414.84 262.655 415.27 262.888C415.699 263.121 416.044 263.429 416.306 263.812C416.567 264.185 416.749 264.591 416.852 265.03C416.964 265.469 417.01 265.875 416.992 266.248C416.992 266.332 416.987 266.416 416.978 266.5C416.978 266.584 416.973 266.668 416.964 266.752H411.49ZM415.788 265.716C415.769 265.091 415.573 264.582 415.2 264.19C414.826 263.798 414.327 263.602 413.702 263.602C413.356 263.602 413.053 263.658 412.792 263.77C412.53 263.882 412.311 264.036 412.134 264.232C411.956 264.428 411.816 264.657 411.714 264.918C411.611 265.17 411.546 265.436 411.518 265.716H415.788ZM418.991 270V260.102H420.181V270H418.991ZM421.614 262.622H422.958L425.282 268.852L427.564 262.622H428.922L426.08 270H424.456L421.614 262.622ZM431.283 266.752C431.311 267.079 431.377 267.382 431.479 267.662C431.591 267.933 431.741 268.171 431.927 268.376C432.114 268.581 432.343 268.745 432.613 268.866C432.893 268.978 433.215 269.034 433.579 269.034C433.757 269.034 433.939 269.02 434.125 268.992C434.321 268.955 434.503 268.899 434.671 268.824C434.839 268.74 434.989 268.633 435.119 268.502C435.25 268.371 435.348 268.213 435.413 268.026H436.631C436.547 268.381 436.403 268.689 436.197 268.95C436.001 269.211 435.763 269.426 435.483 269.594C435.213 269.762 434.909 269.888 434.573 269.972C434.237 270.047 433.897 270.084 433.551 270.084C432.963 270.084 432.45 269.991 432.011 269.804C431.582 269.617 431.223 269.361 430.933 269.034C430.644 268.698 430.429 268.301 430.289 267.844C430.149 267.377 430.079 266.869 430.079 266.318C430.079 265.767 430.154 265.263 430.303 264.806C430.462 264.339 430.686 263.938 430.975 263.602C431.265 263.266 431.619 263.005 432.039 262.818C432.459 262.631 432.959 262.538 433.537 262.538C434.125 262.538 434.634 262.655 435.063 262.888C435.493 263.121 435.838 263.429 436.099 263.812C436.361 264.185 436.543 264.591 436.645 265.03C436.757 265.469 436.804 265.875 436.785 266.248C436.785 266.332 436.781 266.416 436.771 266.5C436.771 266.584 436.767 266.668 436.757 266.752H431.283ZM435.581 265.716C435.563 265.091 435.367 264.582 434.993 264.19C434.62 263.798 434.121 263.602 433.495 263.602C433.15 263.602 432.847 263.658 432.585 263.77C432.324 263.882 432.105 264.036 431.927 264.232C431.75 264.428 431.61 264.657 431.507 264.918C431.405 265.17 431.339 265.436 431.311 265.716H435.581ZM440.647 262.622H442.621V263.672H440.647V267.494C440.647 267.998 440.745 268.371 440.941 268.614C441.137 268.847 441.501 268.964 442.033 268.964H442.579V270H441.781C440.941 270 440.344 269.809 439.989 269.426C439.634 269.043 439.457 268.441 439.457 267.62V263.672H438.253V262.622H439.457V260.424H440.647V262.622ZM445.053 259.92C445.277 259.92 445.468 259.995 445.627 260.144C445.785 260.284 445.865 260.471 445.865 260.704C445.865 260.937 445.785 261.129 445.627 261.278C445.468 261.427 445.277 261.502 445.053 261.502C444.819 261.502 444.628 261.427 444.479 261.278C444.329 261.129 444.255 260.937 444.255 260.704C444.255 260.471 444.329 260.284 444.479 260.144C444.628 259.995 444.819 259.92 445.053 259.92ZM444.465 270V262.622H445.655V270H444.465ZM451.184 270.084C450.596 270.084 450.087 269.991 449.658 269.804C449.229 269.617 448.874 269.356 448.594 269.02C448.314 268.684 448.104 268.287 447.964 267.83C447.824 267.373 447.754 266.873 447.754 266.332C447.754 265.809 447.829 265.319 447.978 264.862C448.127 264.395 448.347 263.994 448.636 263.658C448.925 263.313 449.289 263.042 449.728 262.846C450.167 262.641 450.699 262.538 451.324 262.538C451.697 262.538 452.029 262.58 452.318 262.664C452.607 262.739 452.878 262.865 453.13 263.042C453.391 263.21 453.615 263.434 453.802 263.714C453.989 263.994 454.124 264.335 454.208 264.736H452.99C452.85 264.325 452.626 264.031 452.318 263.854C452.019 263.677 451.665 263.593 451.254 263.602C450.853 263.602 450.498 263.681 450.19 263.84C449.891 263.989 449.649 264.19 449.462 264.442C449.285 264.694 449.154 264.988 449.07 265.324C448.986 265.651 448.944 265.987 448.944 266.332C448.944 266.696 448.986 267.041 449.07 267.368C449.163 267.695 449.299 267.984 449.476 268.236C449.663 268.479 449.901 268.675 450.19 268.824C450.479 268.964 450.825 269.034 451.226 269.034C451.422 269.034 451.613 269.015 451.8 268.978C451.996 268.941 452.173 268.88 452.332 268.796C452.5 268.703 452.645 268.581 452.766 268.432C452.887 268.283 452.976 268.101 453.032 267.886H454.264C454.189 268.269 454.054 268.6 453.858 268.88C453.671 269.151 453.438 269.379 453.158 269.566C452.878 269.743 452.57 269.874 452.234 269.958C451.898 270.042 451.548 270.084 451.184 270.084ZM461.03 269.062C460.872 269.277 460.69 269.449 460.484 269.58C460.279 269.711 460.064 269.813 459.84 269.888C459.626 269.963 459.406 270.014 459.182 270.042C458.968 270.07 458.753 270.084 458.538 270.084C458.193 270.084 457.866 270.042 457.558 269.958C457.25 269.874 456.97 269.739 456.718 269.552C456.476 269.365 456.28 269.132 456.13 268.852C455.99 268.572 455.92 268.255 455.92 267.9C455.92 267.48 455.995 267.13 456.144 266.85C456.303 266.561 456.513 266.327 456.774 266.15C457.036 265.973 457.334 265.851 457.67 265.786C458.016 265.711 458.38 265.674 458.762 265.674H460.932C460.932 265.049 460.797 264.554 460.526 264.19C460.256 263.817 459.798 263.621 459.154 263.602C458.762 263.602 458.417 263.667 458.118 263.798C457.82 263.929 457.614 264.143 457.502 264.442H456.228C456.294 264.106 456.424 263.821 456.62 263.588C456.816 263.345 457.05 263.149 457.32 263C457.591 262.841 457.885 262.725 458.202 262.65C458.52 262.575 458.837 262.538 459.154 262.538C459.705 262.538 460.167 262.631 460.54 262.818C460.923 262.995 461.231 263.233 461.464 263.532C461.698 263.821 461.861 264.176 461.954 264.596C462.048 265.016 462.094 265.487 462.094 266.01V270H461.1L461.03 269.062ZM459.63 266.668C459.406 266.668 459.145 266.673 458.846 266.682C458.557 266.682 458.277 266.71 458.006 266.766C457.736 266.822 457.516 266.939 457.348 267.116C457.19 267.293 457.11 267.527 457.11 267.816C457.11 268.031 457.152 268.213 457.236 268.362C457.32 268.511 457.432 268.637 457.572 268.74C457.722 268.843 457.89 268.917 458.076 268.964C458.263 269.011 458.454 269.034 458.65 269.034C459.35 269.034 459.901 268.866 460.302 268.53C460.713 268.185 460.923 267.685 460.932 267.032V266.668H459.63Z" fill="#E2E3E6"></path> <path d="M36.408 468V416.88H53.76C59.184 416.88 63.696 418.032 67.296 420.336C70.944 422.592 73.68 425.664 75.504 429.552C77.328 433.392 78.24 437.664 78.24 442.368C78.24 447.552 77.232 452.064 75.216 455.904C73.248 459.744 70.416 462.72 66.72 464.832C63.072 466.944 58.752 468 53.76 468H36.408ZM73.2 442.368C73.2 438.288 72.432 434.664 70.896 431.496C69.408 428.328 67.224 425.856 64.344 424.08C61.464 422.256 57.936 421.344 53.76 421.344H41.448V463.536H53.76C57.984 463.536 61.536 462.6 64.416 460.728C67.296 458.856 69.48 456.336 70.968 453.168C72.456 449.952 73.2 446.352 73.2 442.368ZM105.589 434.808C102.325 434.904 99.4448 435.816 96.9488 437.544C94.5008 439.272 92.7728 441.648 91.7648 444.672V468H86.8688V430.488H91.4768V439.488C92.7728 436.848 94.4768 434.712 96.5888 433.08C98.7488 431.448 101.029 430.536 103.429 430.344C103.909 430.296 104.317 430.272 104.653 430.272C105.037 430.272 105.349 430.296 105.589 430.344V434.808ZM127.116 468.72C124.428 468.72 121.932 468.216 119.628 467.208C117.324 466.152 115.332 464.736 113.652 462.96C111.972 461.136 110.652 459.048 109.692 456.696C108.78 454.344 108.324 451.824 108.324 449.136C108.324 445.632 109.116 442.416 110.7 439.488C112.332 436.56 114.564 434.232 117.396 432.504C120.228 430.728 123.444 429.84 127.044 429.84C130.74 429.84 133.956 430.728 136.692 432.504C139.476 434.28 141.66 436.632 143.244 439.56C144.828 442.44 145.62 445.608 145.62 449.064C145.62 449.448 145.62 449.832 145.62 450.216C145.62 450.552 145.596 450.816 145.548 451.008H113.436C113.676 453.696 114.42 456.096 115.668 458.208C116.964 460.272 118.62 461.928 120.636 463.176C122.7 464.376 124.932 464.976 127.332 464.976C129.78 464.976 132.084 464.352 134.244 463.104C136.452 461.856 137.988 460.224 138.852 458.208L143.1 459.36C142.332 461.136 141.156 462.744 139.572 464.184C137.988 465.624 136.116 466.752 133.956 467.568C131.844 468.336 129.564 468.72 127.116 468.72ZM113.292 447.48H141.012C140.82 444.744 140.076 442.344 138.78 440.28C137.532 438.216 135.876 436.608 133.812 435.456C131.796 434.256 129.564 433.656 127.116 433.656C124.668 433.656 122.436 434.256 120.42 435.456C118.404 436.608 116.748 438.24 115.452 440.352C114.204 442.416 113.484 444.792 113.292 447.48ZM172.325 468.72C169.205 468.72 166.397 467.904 163.901 466.272C161.453 464.64 159.509 462.624 158.069 460.224V483.336H153.173V430.488H157.565V437.76C159.053 435.408 161.045 433.512 163.541 432.072C166.037 430.584 168.701 429.84 171.533 429.84C174.125 429.84 176.501 430.392 178.661 431.496C180.821 432.552 182.693 433.992 184.277 435.816C185.861 437.64 187.085 439.728 187.949 442.08C188.861 444.384 189.317 446.784 189.317 449.28C189.317 452.784 188.597 456.024 187.157 459C185.765 461.928 183.797 464.28 181.253 466.056C178.709 467.832 175.733 468.72 172.325 468.72ZM170.957 464.4C173.021 464.4 174.869 463.992 176.501 463.176C178.133 462.312 179.525 461.16 180.677 459.72C181.877 458.28 182.789 456.672 183.413 454.896C184.037 453.072 184.349 451.2 184.349 449.28C184.349 447.264 183.989 445.344 183.269 443.52C182.597 441.696 181.613 440.088 180.317 438.696C179.021 437.304 177.533 436.2 175.853 435.384C174.173 434.568 172.349 434.16 170.381 434.16C169.133 434.16 167.837 434.4 166.493 434.88C165.149 435.36 163.853 436.056 162.605 436.968C161.405 437.832 160.397 438.816 159.581 439.92C158.765 441.024 158.261 442.2 158.069 443.448V454.968C158.837 456.744 159.869 458.352 161.165 459.792C162.461 461.184 163.949 462.312 165.629 463.176C167.357 463.992 169.133 464.4 170.957 464.4ZM215.048 466.2C214.664 466.344 214.064 466.608 213.248 466.992C212.432 467.376 211.448 467.712 210.296 468C209.144 468.288 207.896 468.432 206.552 468.432C205.16 468.432 203.84 468.168 202.592 467.64C201.392 467.112 200.432 466.32 199.712 465.264C198.992 464.16 198.632 462.816 198.632 461.232V434.376H193.448V430.488H198.632V417.816H203.528V430.488H212.168V434.376H203.528V459.864C203.624 461.208 204.104 462.216 204.968 462.888C205.88 463.56 206.912 463.896 208.064 463.896C209.408 463.896 210.632 463.68 211.736 463.248C212.84 462.768 213.512 462.432 213.752 462.24L215.048 466.2Z" fill="#E2E3E6"></path> <path d="M407.186 464.29V468H405.968V458.102H409.678C410.22 458.102 410.71 458.158 411.148 458.27C411.587 458.382 411.96 458.559 412.268 458.802C412.576 459.045 412.81 459.367 412.968 459.768C413.136 460.16 413.22 460.636 413.22 461.196C413.22 461.607 413.16 461.975 413.038 462.302C412.917 462.619 412.754 462.899 412.548 463.142C412.352 463.375 412.119 463.571 411.848 463.73C411.578 463.879 411.298 463.996 411.008 464.08L413.08 468H411.75L409.776 464.29H407.186ZM409.286 463.184C409.65 463.184 409.991 463.156 410.308 463.1C410.635 463.044 410.92 462.941 411.162 462.792C411.405 462.643 411.596 462.442 411.736 462.19C411.886 461.929 411.965 461.583 411.974 461.154C411.974 460.445 411.764 459.945 411.344 459.656C410.934 459.357 410.336 459.208 409.552 459.208H407.186V463.184H409.286ZM420.025 467.062C419.866 467.277 419.684 467.449 419.479 467.58C419.273 467.711 419.059 467.813 418.835 467.888C418.62 467.963 418.401 468.014 418.177 468.042C417.962 468.07 417.747 468.084 417.533 468.084C417.187 468.084 416.861 468.042 416.553 467.958C416.245 467.874 415.965 467.739 415.713 467.552C415.47 467.365 415.274 467.132 415.125 466.852C414.985 466.572 414.915 466.255 414.915 465.9C414.915 465.48 414.989 465.13 415.139 464.85C415.297 464.561 415.507 464.327 415.769 464.15C416.03 463.973 416.329 463.851 416.665 463.786C417.01 463.711 417.374 463.674 417.757 463.674H419.927C419.927 463.049 419.791 462.554 419.521 462.19C419.25 461.817 418.793 461.621 418.149 461.602C417.757 461.602 417.411 461.667 417.113 461.798C416.814 461.929 416.609 462.143 416.497 462.442H415.223C415.288 462.106 415.419 461.821 415.615 461.588C415.811 461.345 416.044 461.149 416.315 461C416.585 460.841 416.879 460.725 417.197 460.65C417.514 460.575 417.831 460.538 418.149 460.538C418.699 460.538 419.161 460.631 419.535 460.818C419.917 460.995 420.225 461.233 420.459 461.532C420.692 461.821 420.855 462.176 420.949 462.596C421.042 463.016 421.089 463.487 421.089 464.01V468H420.095L420.025 467.062ZM418.625 464.668C418.401 464.668 418.139 464.673 417.841 464.682C417.551 464.682 417.271 464.71 417.001 464.766C416.73 464.822 416.511 464.939 416.343 465.116C416.184 465.293 416.105 465.527 416.105 465.816C416.105 466.031 416.147 466.213 416.231 466.362C416.315 466.511 416.427 466.637 416.567 466.74C416.716 466.843 416.884 466.917 417.071 466.964C417.257 467.011 417.449 467.034 417.645 467.034C418.345 467.034 418.895 466.866 419.297 466.53C419.707 466.185 419.917 465.685 419.927 465.032V464.668H418.625ZM423.332 468V458.102H424.522V468H423.332ZM427.719 464.752C427.747 465.079 427.812 465.382 427.915 465.662C428.027 465.933 428.176 466.171 428.363 466.376C428.549 466.581 428.778 466.745 429.049 466.866C429.329 466.978 429.651 467.034 430.015 467.034C430.192 467.034 430.374 467.02 430.561 466.992C430.757 466.955 430.939 466.899 431.107 466.824C431.275 466.74 431.424 466.633 431.555 466.502C431.685 466.371 431.783 466.213 431.849 466.026H433.067C432.983 466.381 432.838 466.689 432.633 466.95C432.437 467.211 432.199 467.426 431.919 467.594C431.648 467.762 431.345 467.888 431.009 467.972C430.673 468.047 430.332 468.084 429.987 468.084C429.399 468.084 428.885 467.991 428.447 467.804C428.017 467.617 427.658 467.361 427.369 467.034C427.079 466.698 426.865 466.301 426.725 465.844C426.585 465.377 426.515 464.869 426.515 464.318C426.515 463.767 426.589 463.263 426.739 462.806C426.897 462.339 427.121 461.938 427.411 461.602C427.7 461.266 428.055 461.005 428.475 460.818C428.895 460.631 429.394 460.538 429.973 460.538C430.561 460.538 431.069 460.655 431.499 460.888C431.928 461.121 432.273 461.429 432.535 461.812C432.796 462.185 432.978 462.591 433.081 463.03C433.193 463.469 433.239 463.875 433.221 464.248C433.221 464.332 433.216 464.416 433.207 464.5C433.207 464.584 433.202 464.668 433.193 464.752H427.719ZM432.017 463.716C431.998 463.091 431.802 462.582 431.429 462.19C431.055 461.798 430.556 461.602 429.931 461.602C429.585 461.602 429.282 461.658 429.021 461.77C428.759 461.882 428.54 462.036 428.363 462.232C428.185 462.428 428.045 462.657 427.943 462.918C427.84 463.17 427.775 463.436 427.747 463.716H432.017ZM434.45 460.622H435.794L437.558 466.852L439.378 460.622H440.988L442.822 466.852L444.558 460.622H445.916L443.62 468H441.996L440.176 462.022L438.356 468H436.746L434.45 460.622ZM452.277 467.062C452.118 467.277 451.936 467.449 451.731 467.58C451.526 467.711 451.311 467.813 451.087 467.888C450.872 467.963 450.653 468.014 450.429 468.042C450.214 468.07 450 468.084 449.785 468.084C449.44 468.084 449.113 468.042 448.805 467.958C448.497 467.874 448.217 467.739 447.965 467.552C447.722 467.365 447.526 467.132 447.377 466.852C447.237 466.572 447.167 466.255 447.167 465.9C447.167 465.48 447.242 465.13 447.391 464.85C447.55 464.561 447.76 464.327 448.021 464.15C448.282 463.973 448.581 463.851 448.917 463.786C449.262 463.711 449.626 463.674 450.009 463.674H452.179C452.179 463.049 452.044 462.554 451.773 462.19C451.502 461.817 451.045 461.621 450.401 461.602C450.009 461.602 449.664 461.667 449.365 461.798C449.066 461.929 448.861 462.143 448.749 462.442H447.475C447.54 462.106 447.671 461.821 447.867 461.588C448.063 461.345 448.296 461.149 448.567 461C448.838 460.841 449.132 460.725 449.449 460.65C449.766 460.575 450.084 460.538 450.401 460.538C450.952 460.538 451.414 460.631 451.787 460.818C452.17 460.995 452.478 461.233 452.711 461.532C452.944 461.821 453.108 462.176 453.201 462.596C453.294 463.016 453.341 463.487 453.341 464.01V468H452.347L452.277 467.062ZM450.877 464.668C450.653 464.668 450.392 464.673 450.093 464.682C449.804 464.682 449.524 464.71 449.253 464.766C448.982 464.822 448.763 464.939 448.595 465.116C448.436 465.293 448.357 465.527 448.357 465.816C448.357 466.031 448.399 466.213 448.483 466.362C448.567 466.511 448.679 466.637 448.819 466.74C448.968 466.843 449.136 466.917 449.323 466.964C449.51 467.011 449.701 467.034 449.897 467.034C450.597 467.034 451.148 466.866 451.549 466.53C451.96 466.185 452.17 465.685 452.179 465.032V464.668H450.877ZM462.066 460.622V468C462.066 469.073 461.786 469.89 461.226 470.45C460.666 471.019 459.868 471.304 458.832 471.304C458.207 471.295 457.642 471.211 457.138 471.052C456.644 470.903 456.186 470.632 455.766 470.24L456.284 469.302C456.648 469.591 457.036 469.82 457.446 469.988C457.866 470.156 458.305 470.24 458.762 470.24C459.145 470.24 459.472 470.179 459.742 470.058C460.013 469.946 460.232 469.783 460.4 469.568C460.578 469.363 460.704 469.115 460.778 468.826C460.862 468.537 460.904 468.224 460.904 467.888V467.006C460.783 467.193 460.629 467.361 460.442 467.51C460.265 467.65 460.069 467.767 459.854 467.86C459.649 467.944 459.425 468.005 459.182 468.042C458.949 468.089 458.711 468.112 458.468 468.112C457.908 468.103 457.442 468.014 457.068 467.846C456.704 467.678 456.41 467.445 456.186 467.146C455.972 466.847 455.818 466.493 455.724 466.082C455.631 465.662 455.584 465.2 455.584 464.696V460.622H456.774V464.36C456.774 464.696 456.793 465.027 456.83 465.354C456.877 465.681 456.966 465.97 457.096 466.222C457.227 466.474 457.418 466.679 457.67 466.838C457.922 466.987 458.258 467.062 458.678 467.062C459.098 467.062 459.453 466.973 459.742 466.796C460.041 466.619 460.27 466.395 460.428 466.124C460.606 465.844 460.722 465.536 460.778 465.2C460.844 464.864 460.876 464.519 460.876 464.164V460.622H462.066Z" fill="#E2E3E6"></path> <path d="M38.208 519.6H58.728C64.056 519.6 68.76 520.68 72.84 522.84C76.92 524.952 80.088 527.928 82.344 531.768C84.6 535.56 85.728 539.904 85.728 544.8C85.728 549.696 84.6 554.064 82.344 557.904C80.088 561.696 76.92 564.672 72.84 566.832C68.76 568.944 64.056 570 58.728 570H38.208V519.6ZM58.44 565.392C62.856 565.392 66.72 564.528 70.032 562.8C73.344 561.024 75.912 558.6 77.736 555.528C79.56 552.408 80.472 548.832 80.472 544.8C80.472 540.768 79.56 537.216 77.736 534.144C75.912 531.024 73.344 528.6 70.032 526.872C66.72 525.096 62.856 524.208 58.44 524.208H43.536V565.392H58.44ZM101.508 539.544C102.708 537 104.484 535.08 106.836 533.784C109.236 532.488 112.188 531.84 115.692 531.84V536.808L114.468 536.736C110.484 536.736 107.364 537.96 105.108 540.408C102.852 542.856 101.724 546.288 101.724 550.704V570H96.6124V532.128H101.508V539.544ZM157.573 552.648H125.893C126.181 556.584 127.693 559.776 130.429 562.224C133.165 564.624 136.621 565.824 140.797 565.824C143.149 565.824 145.309 565.416 147.277 564.6C149.245 563.736 150.949 562.488 152.389 560.856L155.269 564.168C153.589 566.184 151.477 567.72 148.933 568.776C146.437 569.832 143.677 570.36 140.653 570.36C136.765 570.36 133.309 569.544 130.285 567.912C127.309 566.232 124.981 563.928 123.301 561C121.621 558.072 120.781 554.76 120.781 551.064C120.781 547.368 121.573 544.056 123.157 541.128C124.789 538.2 126.997 535.92 129.781 534.288C132.613 532.656 135.781 531.84 139.285 531.84C142.789 531.84 145.933 532.656 148.717 534.288C151.501 535.92 153.685 538.2 155.269 541.128C156.853 544.008 157.645 547.32 157.645 551.064L157.573 552.648ZM139.285 536.232C135.637 536.232 132.565 537.408 130.069 539.76C127.621 542.064 126.229 545.088 125.893 548.832H152.749C152.413 545.088 150.997 542.064 148.501 539.76C146.053 537.408 142.981 536.232 139.285 536.232ZM187.562 531.84C191.114 531.84 194.33 532.656 197.21 534.288C200.09 535.872 202.346 538.128 203.978 541.056C205.61 543.984 206.426 547.32 206.426 551.064C206.426 554.856 205.61 558.216 203.978 561.144C202.346 564.072 200.09 566.352 197.21 567.984C194.378 569.568 191.162 570.36 187.562 570.36C184.49 570.36 181.706 569.736 179.21 568.488C176.762 567.192 174.746 565.32 173.162 562.872V583.968H168.05V532.128H172.946V539.616C174.482 537.12 176.498 535.2 178.994 533.856C181.538 532.512 184.394 531.84 187.562 531.84ZM187.202 565.824C189.842 565.824 192.242 565.224 194.402 564.024C196.562 562.776 198.242 561.024 199.442 558.768C200.69 556.512 201.314 553.944 201.314 551.064C201.314 548.184 200.69 545.64 199.442 543.432C198.242 541.176 196.562 539.424 194.402 538.176C192.242 536.928 189.842 536.304 187.202 536.304C184.514 536.304 182.09 536.928 179.93 538.176C177.818 539.424 176.138 541.176 174.89 543.432C173.69 545.64 173.09 548.184 173.09 551.064C173.09 553.944 173.69 556.512 174.89 558.768C176.138 561.024 177.818 562.776 179.93 564.024C182.09 565.224 184.514 565.824 187.202 565.824ZM236.791 567.696C235.831 568.56 234.631 569.232 233.191 569.712C231.799 570.144 230.335 570.36 228.799 570.36C225.247 570.36 222.511 569.4 220.591 567.48C218.671 565.56 217.711 562.848 217.711 559.344V536.448H210.943V532.128H217.711V523.848H222.823V532.128H234.343V536.448H222.823V559.056C222.823 561.312 223.375 563.04 224.479 564.24C225.631 565.392 227.263 565.968 229.375 565.968C230.431 565.968 231.439 565.8 232.399 565.464C233.407 565.128 234.271 564.648 234.991 564.024L236.791 567.696Z" fill="#A9AEB2"></path> <path d="M387.938 569V559.102H389.786L392.754 564.548L395.68 559.102H397.486V569H396.268V560.39L393.006 566.41H392.446L389.156 560.39V569H387.938ZM403.297 561.538C403.885 561.538 404.393 561.631 404.823 561.818C405.252 562.005 405.611 562.266 405.901 562.602C406.199 562.938 406.419 563.339 406.559 563.806C406.708 564.263 406.783 564.767 406.783 565.318C406.783 565.869 406.708 566.377 406.559 566.844C406.419 567.301 406.199 567.698 405.901 568.034C405.611 568.361 405.247 568.617 404.809 568.804C404.37 568.991 403.857 569.084 403.269 569.084C402.681 569.084 402.167 568.991 401.729 568.804C401.299 568.617 400.935 568.361 400.637 568.034C400.347 567.698 400.128 567.301 399.979 566.844C399.839 566.377 399.769 565.869 399.769 565.318C399.769 564.767 399.839 564.263 399.979 563.806C400.128 563.339 400.347 562.938 400.637 562.602C400.935 562.266 401.309 562.005 401.757 561.818C402.205 561.631 402.718 561.538 403.297 561.538ZM403.269 568.034C403.67 568.034 404.015 567.964 404.305 567.824C404.603 567.684 404.846 567.493 405.033 567.25C405.229 566.998 405.369 566.709 405.453 566.382C405.546 566.055 405.593 565.701 405.593 565.318C405.593 564.945 405.546 564.595 405.453 564.268C405.369 563.932 405.229 563.643 405.033 563.4C404.846 563.148 404.603 562.952 404.305 562.812C404.015 562.672 403.67 562.602 403.269 562.602C402.867 562.602 402.522 562.672 402.233 562.812C401.943 562.952 401.701 563.148 401.505 563.4C401.318 563.643 401.178 563.932 401.085 564.268C401.001 564.595 400.959 564.945 400.959 565.318C400.959 565.701 401.001 566.055 401.085 566.382C401.178 566.709 401.318 566.998 401.505 567.25C401.701 567.493 401.943 567.684 402.233 567.824C402.522 567.964 402.867 568.034 403.269 568.034ZM408.775 569V561.622H409.923L409.979 562.742C410.1 562.537 410.249 562.359 410.427 562.21C410.613 562.061 410.814 561.935 411.029 561.832C411.243 561.729 411.467 561.655 411.701 561.608C411.943 561.561 412.177 561.538 412.401 561.538C412.933 561.538 413.381 561.627 413.745 561.804C414.109 561.972 414.398 562.21 414.613 562.518C414.827 562.817 414.981 563.176 415.075 563.596C415.168 564.007 415.215 564.45 415.215 564.926V569H414.025V565.248C414.025 564.903 414.001 564.571 413.955 564.254C413.917 563.937 413.833 563.657 413.703 563.414C413.581 563.162 413.404 562.961 413.171 562.812C412.937 562.663 412.625 562.588 412.233 562.588C411.85 562.597 411.509 562.691 411.211 562.868C410.921 563.045 410.688 563.255 410.511 563.498C410.296 563.806 410.151 564.147 410.077 564.52C410.002 564.884 409.965 565.253 409.965 565.626V569H408.775ZM419.308 561.622H421.576V562.672H419.308V566.508C419.308 566.723 419.318 566.923 419.336 567.11C419.364 567.287 419.411 567.446 419.476 567.586C419.551 567.717 419.654 567.824 419.784 567.908C419.924 567.983 420.111 568.025 420.344 568.034C420.559 568.034 420.746 567.997 420.904 567.922C421.072 567.847 421.212 567.759 421.324 567.656L421.842 568.524C421.6 568.729 421.348 568.874 421.086 568.958C420.825 569.042 420.536 569.084 420.218 569.084C419.817 569.084 419.481 569.028 419.21 568.916C418.94 568.795 418.711 568.622 418.524 568.398C418.366 568.183 418.258 567.931 418.202 567.642C418.146 567.353 418.118 567.026 418.118 566.662V562.672H416.914V561.622H418.118V559.41H419.308V561.622ZM426.029 562.602C425.861 562.602 425.688 562.616 425.511 562.644C425.343 562.663 425.175 562.709 425.007 562.784C424.848 562.849 424.708 562.952 424.587 563.092C424.475 563.223 424.414 563.4 424.405 563.624C424.405 563.941 424.522 564.179 424.755 564.338C424.998 564.497 425.31 564.613 425.693 564.688C425.852 564.725 426.024 564.763 426.211 564.8C426.398 564.828 426.58 564.861 426.757 564.898C426.944 564.926 427.116 564.959 427.275 564.996C427.443 565.033 427.583 565.071 427.695 565.108C428.591 565.388 429.039 565.99 429.039 566.914C429.03 567.362 428.932 567.726 428.745 568.006C428.568 568.277 428.339 568.491 428.059 568.65C427.788 568.809 427.476 568.921 427.121 568.986C426.776 569.051 426.43 569.084 426.085 569.084C425.749 569.084 425.408 569.051 425.063 568.986C424.718 568.921 424.4 568.809 424.111 568.65C423.831 568.482 423.588 568.267 423.383 568.006C423.187 567.735 423.061 567.399 423.005 566.998H424.209C424.284 567.222 424.4 567.399 424.559 567.53C424.718 567.661 424.886 567.763 425.063 567.838C425.25 567.913 425.422 567.964 425.581 567.992C425.749 568.02 425.936 568.034 426.141 568.034C426.29 568.034 426.463 568.025 426.659 568.006C426.855 567.987 427.042 567.945 427.219 567.88C427.396 567.805 427.546 567.698 427.667 567.558C427.788 567.418 427.849 567.222 427.849 566.97C427.849 566.69 427.756 566.48 427.569 566.34C427.392 566.2 427.144 566.097 426.827 566.032C426.603 565.985 426.37 565.943 426.127 565.906C425.894 565.859 425.656 565.813 425.413 565.766C425.18 565.71 424.951 565.649 424.727 565.584C424.503 565.509 424.293 565.411 424.097 565.29C423.836 565.131 423.626 564.917 423.467 564.646C423.308 564.375 423.229 564.044 423.229 563.652C423.248 563.241 423.341 562.905 423.509 562.644C423.677 562.373 423.892 562.154 424.153 561.986C424.433 561.818 424.732 561.701 425.049 561.636C425.366 561.571 425.702 561.538 426.057 561.538C426.813 561.538 427.415 561.701 427.863 562.028C428.134 562.215 428.344 562.439 428.493 562.7C428.642 562.961 428.736 563.237 428.773 563.526H427.667C427.602 563.255 427.424 563.036 427.135 562.868C426.846 562.7 426.477 562.611 426.029 562.602ZM431.844 565.752C431.872 566.079 431.937 566.382 432.04 566.662C432.152 566.933 432.301 567.171 432.488 567.376C432.675 567.581 432.903 567.745 433.174 567.866C433.454 567.978 433.776 568.034 434.14 568.034C434.317 568.034 434.499 568.02 434.686 567.992C434.882 567.955 435.064 567.899 435.232 567.824C435.4 567.74 435.549 567.633 435.68 567.502C435.811 567.371 435.909 567.213 435.974 567.026H437.192C437.108 567.381 436.963 567.689 436.758 567.95C436.562 568.211 436.324 568.426 436.044 568.594C435.773 568.762 435.47 568.888 435.134 568.972C434.798 569.047 434.457 569.084 434.112 569.084C433.524 569.084 433.011 568.991 432.572 568.804C432.143 568.617 431.783 568.361 431.494 568.034C431.205 567.698 430.99 567.301 430.85 566.844C430.71 566.377 430.64 565.869 430.64 565.318C430.64 564.767 430.715 564.263 430.864 563.806C431.023 563.339 431.247 562.938 431.536 562.602C431.825 562.266 432.18 562.005 432.6 561.818C433.02 561.631 433.519 561.538 434.098 561.538C434.686 561.538 435.195 561.655 435.624 561.888C436.053 562.121 436.399 562.429 436.66 562.812C436.921 563.185 437.103 563.591 437.206 564.03C437.318 564.469 437.365 564.875 437.346 565.248C437.346 565.332 437.341 565.416 437.332 565.5C437.332 565.584 437.327 565.668 437.318 565.752H431.844ZM436.142 564.716C436.123 564.091 435.927 563.582 435.554 563.19C435.181 562.798 434.681 562.602 434.056 562.602C433.711 562.602 433.407 562.658 433.146 562.77C432.885 562.882 432.665 563.036 432.488 563.232C432.311 563.428 432.171 563.657 432.068 563.918C431.965 564.17 431.9 564.436 431.872 564.716H436.142ZM439.345 569V561.622H440.493L440.549 562.77C440.82 562.341 441.165 562.028 441.585 561.832C442.005 561.636 442.481 561.538 443.013 561.538H443.391V562.658H442.957C442.519 562.658 442.145 562.733 441.837 562.882C441.529 563.022 441.277 563.218 441.081 563.47C440.895 563.713 440.755 564.002 440.661 564.338C440.577 564.674 440.535 565.029 440.535 565.402V569H439.345ZM444.968 569V561.622H446.116L446.172 562.77C446.443 562.341 446.788 562.028 447.208 561.832C447.628 561.636 448.104 561.538 448.636 561.538H449.014V562.658H448.58C448.141 562.658 447.768 562.733 447.46 562.882C447.152 563.022 446.9 563.218 446.704 563.47C446.517 563.713 446.377 564.002 446.284 564.338C446.2 564.674 446.158 565.029 446.158 565.402V569H444.968ZM455.449 568.062C455.29 568.277 455.108 568.449 454.903 568.58C454.697 568.711 454.483 568.813 454.259 568.888C454.044 568.963 453.825 569.014 453.601 569.042C453.386 569.07 453.171 569.084 452.957 569.084C452.611 569.084 452.285 569.042 451.977 568.958C451.669 568.874 451.389 568.739 451.137 568.552C450.894 568.365 450.698 568.132 450.549 567.852C450.409 567.572 450.339 567.255 450.339 566.9C450.339 566.48 450.413 566.13 450.563 565.85C450.721 565.561 450.931 565.327 451.193 565.15C451.454 564.973 451.753 564.851 452.089 564.786C452.434 564.711 452.798 564.674 453.181 564.674H455.351C455.351 564.049 455.215 563.554 454.945 563.19C454.674 562.817 454.217 562.621 453.573 562.602C453.181 562.602 452.835 562.667 452.537 562.798C452.238 562.929 452.033 563.143 451.921 563.442H450.647C450.712 563.106 450.843 562.821 451.039 562.588C451.235 562.345 451.468 562.149 451.739 562C452.009 561.841 452.303 561.725 452.621 561.65C452.938 561.575 453.255 561.538 453.573 561.538C454.123 561.538 454.585 561.631 454.959 561.818C455.341 561.995 455.649 562.233 455.883 562.532C456.116 562.821 456.279 563.176 456.373 563.596C456.466 564.016 456.513 564.487 456.513 565.01V569H455.519L455.449 568.062ZM454.049 565.668C453.825 565.668 453.563 565.673 453.265 565.682C452.975 565.682 452.695 565.71 452.425 565.766C452.154 565.822 451.935 565.939 451.767 566.116C451.608 566.293 451.529 566.527 451.529 566.816C451.529 567.031 451.571 567.213 451.655 567.362C451.739 567.511 451.851 567.637 451.991 567.74C452.14 567.843 452.308 567.917 452.495 567.964C452.681 568.011 452.873 568.034 453.069 568.034C453.769 568.034 454.319 567.866 454.721 567.53C455.131 567.185 455.341 566.685 455.351 566.032V565.668H454.049ZM460.618 561.622H462.592V562.672H460.618V566.494C460.618 566.998 460.716 567.371 460.912 567.614C461.108 567.847 461.472 567.964 462.004 567.964H462.55V569H461.752C460.912 569 460.315 568.809 459.96 568.426C459.606 568.043 459.428 567.441 459.428 566.62V562.672H458.224V561.622H459.428V559.424H460.618V561.622Z" fill="#E5E5E5"></path> <path d="M35.5547 168V116.461H53.3086C57.3164 116.461 60.375 116.707 62.4844 117.199C65.4375 117.879 67.957 119.109 70.043 120.891C72.7617 123.188 74.7891 126.129 76.125 129.715C77.4844 133.277 78.1641 137.355 78.1641 141.949C78.1641 145.863 77.707 149.332 76.793 152.355C75.8789 155.379 74.707 157.887 73.2773 159.879C71.8477 161.848 70.2773 163.406 68.5664 164.555C66.8789 165.68 64.8281 166.535 62.4141 167.121C60.0234 167.707 57.2695 168 54.1523 168H35.5547ZM42.375 161.918H53.3789C56.7773 161.918 59.4375 161.602 61.3594 160.969C63.3047 160.336 64.8516 159.445 66 158.297C67.6172 156.68 68.8711 154.512 69.7617 151.793C70.6758 149.051 71.1328 145.734 71.1328 141.844C71.1328 136.453 70.2422 132.316 68.4609 129.434C66.7031 126.527 64.5586 124.582 62.0273 123.598C60.1992 122.895 57.2578 122.543 53.2031 122.543H42.375V161.918ZM86.707 168V130.664H92.4023V136.324C93.8555 133.676 95.1914 131.93 96.4102 131.086C97.6523 130.242 99.0117 129.82 100.488 129.82C102.621 129.82 104.789 130.5 106.992 131.859L104.812 137.73C103.266 136.816 101.719 136.359 100.172 136.359C98.7891 136.359 97.5469 136.781 96.4453 137.625C95.3438 138.445 94.5586 139.594 94.0898 141.07C93.3867 143.32 93.0352 145.781 93.0352 148.453V168H86.707ZM136.312 155.977L142.852 156.785C141.82 160.605 139.91 163.57 137.121 165.68C134.332 167.789 130.77 168.844 126.434 168.844C120.973 168.844 116.637 167.168 113.426 163.816C110.238 160.441 108.645 155.719 108.645 149.648C108.645 143.367 110.262 138.492 113.496 135.023C116.73 131.555 120.926 129.82 126.082 129.82C131.074 129.82 135.152 131.52 138.316 134.918C141.48 138.316 143.062 143.098 143.062 149.262C143.062 149.637 143.051 150.199 143.027 150.949H115.184C115.418 155.051 116.578 158.191 118.664 160.371C120.75 162.551 123.352 163.641 126.469 163.641C128.789 163.641 130.77 163.031 132.41 161.812C134.051 160.594 135.352 158.648 136.312 155.977ZM115.535 145.746H136.383C136.102 142.605 135.305 140.25 133.992 138.68C131.977 136.242 129.363 135.023 126.152 135.023C123.246 135.023 120.797 135.996 118.805 137.941C116.836 139.887 115.746 142.488 115.535 145.746ZM150.832 182.309V130.664H156.598V135.516C157.957 133.617 159.492 132.199 161.203 131.262C162.914 130.301 164.988 129.82 167.426 129.82C170.613 129.82 173.426 130.641 175.863 132.281C178.301 133.922 180.141 136.242 181.383 139.242C182.625 142.219 183.246 145.488 183.246 149.051C183.246 152.871 182.555 156.316 181.172 159.387C179.812 162.434 177.82 164.777 175.195 166.418C172.594 168.035 169.852 168.844 166.969 168.844C164.859 168.844 162.961 168.398 161.273 167.508C159.609 166.617 158.238 165.492 157.16 164.133V182.309H150.832ZM156.562 149.543C156.562 154.348 157.535 157.898 159.48 160.195C161.426 162.492 163.781 163.641 166.547 163.641C169.359 163.641 171.762 162.457 173.754 160.09C175.77 157.699 176.777 154.008 176.777 149.016C176.777 144.258 175.793 140.695 173.824 138.328C171.879 135.961 169.547 134.777 166.828 134.777C164.133 134.777 161.742 136.043 159.656 138.574C157.594 141.082 156.562 144.738 156.562 149.543ZM204.727 162.34L205.641 167.93C203.859 168.305 202.266 168.492 200.859 168.492C198.562 168.492 196.781 168.129 195.516 167.402C194.25 166.676 193.359 165.727 192.844 164.555C192.328 163.359 192.07 160.863 192.07 157.066V135.586H187.43V130.664H192.07V121.418L198.363 117.621V130.664H204.727V135.586H198.363V157.418C198.363 159.223 198.469 160.383 198.68 160.898C198.914 161.414 199.277 161.824 199.77 162.129C200.285 162.434 201.012 162.586 201.949 162.586C202.652 162.586 203.578 162.504 204.727 162.34Z" fill="#A9AEB2"></path> <path d="M440.627 168L439.843 165.872H434.943L434.159 168H432.843L436.525 158.102H438.275L441.943 168H440.627ZM437.393 159.166L435.349 164.766H439.437L437.393 159.166ZM443.42 168V160.622H444.568L444.624 161.77C444.894 161.341 445.24 161.028 445.66 160.832C446.08 160.636 446.556 160.538 447.088 160.538H447.466V161.658H447.032C446.593 161.658 446.22 161.733 445.912 161.882C445.604 162.022 445.352 162.218 445.156 162.47C444.969 162.713 444.829 163.002 444.736 163.338C444.652 163.674 444.61 164.029 444.61 164.402V168H443.42ZM449.728 157.92C449.952 157.92 450.144 157.995 450.302 158.144C450.461 158.284 450.54 158.471 450.54 158.704C450.54 158.937 450.461 159.129 450.302 159.278C450.144 159.427 449.952 159.502 449.728 159.502C449.495 159.502 449.304 159.427 449.154 159.278C449.005 159.129 448.93 158.937 448.93 158.704C448.93 158.471 449.005 158.284 449.154 158.144C449.304 157.995 449.495 157.92 449.728 157.92ZM449.14 168V160.622H450.33V168H449.14ZM457.568 167.062C457.409 167.277 457.227 167.449 457.022 167.58C456.817 167.711 456.602 167.813 456.378 167.888C456.163 167.963 455.944 168.014 455.72 168.042C455.505 168.07 455.291 168.084 455.076 168.084C454.731 168.084 454.404 168.042 454.096 167.958C453.788 167.874 453.508 167.739 453.256 167.552C453.013 167.365 452.817 167.132 452.668 166.852C452.528 166.572 452.458 166.255 452.458 165.9C452.458 165.48 452.533 165.13 452.682 164.85C452.841 164.561 453.051 164.327 453.312 164.15C453.573 163.973 453.872 163.851 454.208 163.786C454.553 163.711 454.917 163.674 455.3 163.674H457.47C457.47 163.049 457.335 162.554 457.064 162.19C456.793 161.817 456.336 161.621 455.692 161.602C455.3 161.602 454.955 161.667 454.656 161.798C454.357 161.929 454.152 162.143 454.04 162.442H452.766C452.831 162.106 452.962 161.821 453.158 161.588C453.354 161.345 453.587 161.149 453.858 161C454.129 160.841 454.423 160.725 454.74 160.65C455.057 160.575 455.375 160.538 455.692 160.538C456.243 160.538 456.705 160.631 457.078 160.818C457.461 160.995 457.769 161.233 458.002 161.532C458.235 161.821 458.399 162.176 458.492 162.596C458.585 163.016 458.632 163.487 458.632 164.01V168H457.638L457.568 167.062ZM456.168 164.668C455.944 164.668 455.683 164.673 455.384 164.682C455.095 164.682 454.815 164.71 454.544 164.766C454.273 164.822 454.054 164.939 453.886 165.116C453.727 165.293 453.648 165.527 453.648 165.816C453.648 166.031 453.69 166.213 453.774 166.362C453.858 166.511 453.97 166.637 454.11 166.74C454.259 166.843 454.427 166.917 454.614 166.964C454.801 167.011 454.992 167.034 455.188 167.034C455.888 167.034 456.439 166.866 456.84 166.53C457.251 166.185 457.461 165.685 457.47 165.032V164.668H456.168ZM460.876 168V158.102H462.066V168H460.876Z" fill="#A9AEB2"></path> <path d="M36.264 316.096H54.336C58.272 316.096 61.728 316.72 64.704 317.968C67.728 319.168 70.248 320.896 72.264 323.152C74.28 325.36 75.792 328.048 76.8 331.216C77.808 334.336 78.312 337.792 78.312 341.584C78.264 345.376 77.736 348.832 76.728 351.952C75.72 355.072 74.208 357.76 72.192 360.016C70.224 362.224 67.752 363.952 64.776 365.2C61.8 366.4 58.32 367 54.336 367H36.264V316.096ZM42.528 321.784V361.312H53.904C56.496 361.312 58.968 360.928 61.32 360.16C63.72 359.344 65.76 357.928 67.44 355.912C68.976 354.136 70.104 352.048 70.824 349.648C71.544 347.2 71.904 344.512 71.904 341.584C71.904 338.56 71.544 335.872 70.824 333.52C70.104 331.168 69.024 329.128 67.584 327.4C66.144 325.672 64.32 324.304 62.112 323.296C59.904 322.288 57.288 321.784 54.264 321.784H42.528ZM86.6443 367V329.056H92.5483L92.8363 334.96C94.2283 332.752 96.0043 331.144 98.1643 330.136C100.324 329.128 102.772 328.624 105.508 328.624H107.452V334.384H105.22C102.964 334.384 101.044 334.768 99.4603 335.536C97.8763 336.256 96.5803 337.264 95.5723 338.56C94.6123 339.808 93.8923 341.296 93.4123 343.024C92.9803 344.752 92.7643 346.576 92.7643 348.496V367H86.6443ZM117.553 350.296C117.697 351.976 118.033 353.536 118.561 354.976C119.137 356.368 119.905 357.592 120.865 358.648C121.825 359.704 123.001 360.544 124.393 361.168C125.833 361.744 127.489 362.032 129.361 362.032C130.273 362.032 131.209 361.96 132.169 361.816C133.177 361.624 134.113 361.336 134.977 360.952C135.841 360.52 136.609 359.968 137.281 359.296C137.953 358.624 138.457 357.808 138.793 356.848H145.057C144.625 358.672 143.881 360.256 142.825 361.6C141.817 362.944 140.593 364.048 139.153 364.912C137.761 365.776 136.201 366.424 134.473 366.856C132.745 367.24 130.993 367.432 129.217 367.432C126.193 367.432 123.553 366.952 121.297 365.992C119.089 365.032 117.241 363.712 115.753 362.032C114.265 360.304 113.161 358.264 112.441 355.912C111.721 353.512 111.361 350.896 111.361 348.064C111.361 345.232 111.745 342.64 112.513 340.288C113.329 337.888 114.481 335.824 115.969 334.096C117.457 332.368 119.281 331.024 121.441 330.064C123.601 329.104 126.169 328.624 129.145 328.624C132.169 328.624 134.785 329.224 136.993 330.424C139.201 331.624 140.977 333.208 142.321 335.176C143.665 337.096 144.601 339.184 145.129 341.44C145.705 343.696 145.945 345.784 145.849 347.704C145.849 348.136 145.825 348.568 145.777 349C145.777 349.432 145.753 349.864 145.705 350.296H117.553ZM139.657 344.968C139.561 341.752 138.553 339.136 136.633 337.12C134.713 335.104 132.145 334.096 128.929 334.096C127.153 334.096 125.593 334.384 124.249 334.96C122.905 335.536 121.777 336.328 120.865 337.336C119.953 338.344 119.233 339.52 118.705 340.864C118.177 342.16 117.841 343.528 117.697 344.968H139.657ZM154.074 380.68V329.056H159.906L160.194 334.744C161.49 332.776 163.242 331.288 165.45 330.28C167.706 329.224 170.13 328.672 172.722 328.624C175.65 328.624 178.122 329.128 180.138 330.136C182.202 331.096 183.906 332.464 185.25 334.24C186.642 335.968 187.674 338.032 188.346 340.432C189.018 342.784 189.354 345.328 189.354 348.064C189.354 350.848 189.018 353.416 188.346 355.768C187.674 358.12 186.642 360.16 185.25 361.888C183.858 363.616 182.106 364.984 179.994 365.992C177.882 366.952 175.362 367.432 172.434 367.432C169.554 367.432 167.106 366.976 165.09 366.064C163.074 365.152 161.442 363.88 160.194 362.248V380.68H154.074ZM171.93 362.032C173.994 362.032 175.722 361.672 177.114 360.952C178.554 360.184 179.706 359.176 180.57 357.928C181.482 356.632 182.13 355.144 182.514 353.464C182.946 351.784 183.186 349.984 183.234 348.064C183.234 346.144 183.018 344.344 182.586 342.664C182.202 340.936 181.554 339.448 180.642 338.2C179.73 336.952 178.53 335.968 177.042 335.248C175.602 334.48 173.85 334.096 171.786 334.096C169.338 334.096 167.226 334.768 165.45 336.112C163.674 337.408 162.33 339.064 161.418 341.08C160.89 342.184 160.53 343.336 160.338 344.536C160.146 345.688 160.05 346.888 160.05 348.136C160.05 349.576 160.146 350.92 160.338 352.168C160.53 353.368 160.89 354.52 161.418 355.624C162.33 357.448 163.65 358.984 165.378 360.232C167.154 361.432 169.338 362.032 171.93 362.032ZM205.697 329.056H215.849V334.456H205.697V354.112C205.697 356.704 206.201 358.624 207.209 359.872C208.217 361.072 210.089 361.672 212.825 361.672H215.633V367H211.529C207.209 367 204.137 366.016 202.313 364.048C200.489 362.08 199.577 358.984 199.577 354.76V334.456H193.385V329.056H199.577V317.752H205.697V329.056Z" fill="white"></path> <path d="M427.619 367.112C426.844 367.112 426.167 366.986 425.589 366.734C425.01 366.473 424.525 366.118 424.133 365.67C423.741 365.222 423.447 364.69 423.251 364.074C423.055 363.458 422.957 362.786 422.957 362.058C422.957 361.33 423.055 360.658 423.251 360.042C423.447 359.417 423.741 358.88 424.133 358.432C424.525 357.984 425.01 357.634 425.589 357.382C426.167 357.121 426.844 356.99 427.619 356.99C428.384 356.99 429.056 357.121 429.635 357.382C430.213 357.634 430.699 357.984 431.091 358.432C431.483 358.88 431.777 359.417 431.973 360.042C432.169 360.658 432.267 361.33 432.267 362.058C432.267 362.786 432.169 363.458 431.973 364.074C431.777 364.69 431.483 365.222 431.091 365.67C430.699 366.118 430.213 366.473 429.635 366.734C429.056 366.986 428.384 367.112 427.619 367.112ZM427.619 358.096C427.031 358.096 426.522 358.203 426.093 358.418C425.663 358.623 425.309 358.908 425.029 359.272C424.749 359.636 424.539 360.061 424.399 360.546C424.259 361.022 424.189 361.526 424.189 362.058C424.189 362.59 424.254 363.094 424.385 363.57C424.525 364.046 424.735 364.466 425.015 364.83C425.295 365.194 425.649 365.483 426.079 365.698C426.517 365.903 427.031 366.006 427.619 366.006C428.207 366.006 428.715 365.903 429.145 365.698C429.574 365.483 429.924 365.199 430.195 364.844C430.475 364.48 430.68 364.06 430.811 363.584C430.951 363.108 431.021 362.599 431.021 362.058C431.021 361.517 430.951 361.008 430.811 360.532C430.68 360.047 430.475 359.627 430.195 359.272C429.915 358.908 429.56 358.623 429.131 358.418C428.701 358.203 428.197 358.096 427.619 358.096ZM434.273 367V359.622H435.421L435.477 360.742C435.598 360.537 435.748 360.359 435.925 360.21C436.112 360.061 436.312 359.935 436.527 359.832C436.742 359.729 436.966 359.655 437.199 359.608C437.442 359.561 437.675 359.538 437.899 359.538C438.431 359.538 438.879 359.627 439.243 359.804C439.607 359.972 439.896 360.21 440.111 360.518C440.326 360.817 440.48 361.176 440.573 361.596C440.666 362.007 440.713 362.45 440.713 362.926V367H439.523V363.248C439.523 362.903 439.5 362.571 439.453 362.254C439.416 361.937 439.332 361.657 439.201 361.414C439.08 361.162 438.902 360.961 438.669 360.812C438.436 360.663 438.123 360.588 437.731 360.588C437.348 360.597 437.008 360.691 436.709 360.868C436.42 361.045 436.186 361.255 436.009 361.498C435.794 361.806 435.65 362.147 435.575 362.52C435.5 362.884 435.463 363.253 435.463 363.626V367H434.273ZM443.869 363.752C443.897 364.079 443.962 364.382 444.065 364.662C444.177 364.933 444.326 365.171 444.513 365.376C444.699 365.581 444.928 365.745 445.199 365.866C445.479 365.978 445.801 366.034 446.165 366.034C446.342 366.034 446.524 366.02 446.711 365.992C446.907 365.955 447.089 365.899 447.257 365.824C447.425 365.74 447.574 365.633 447.705 365.502C447.835 365.371 447.933 365.213 447.999 365.026H449.217C449.133 365.381 448.988 365.689 448.783 365.95C448.587 366.211 448.349 366.426 448.069 366.594C447.798 366.762 447.495 366.888 447.159 366.972C446.823 367.047 446.482 367.084 446.137 367.084C445.549 367.084 445.035 366.991 444.597 366.804C444.167 366.617 443.808 366.361 443.519 366.034C443.229 365.698 443.015 365.301 442.875 364.844C442.735 364.377 442.665 363.869 442.665 363.318C442.665 362.767 442.739 362.263 442.889 361.806C443.047 361.339 443.271 360.938 443.561 360.602C443.85 360.266 444.205 360.005 444.625 359.818C445.045 359.631 445.544 359.538 446.123 359.538C446.711 359.538 447.219 359.655 447.649 359.888C448.078 360.121 448.423 360.429 448.685 360.812C448.946 361.185 449.128 361.591 449.231 362.03C449.343 362.469 449.389 362.875 449.371 363.248C449.371 363.332 449.366 363.416 449.357 363.5C449.357 363.584 449.352 363.668 449.343 363.752H443.869ZM448.167 362.716C448.148 362.091 447.952 361.582 447.579 361.19C447.205 360.798 446.706 360.602 446.081 360.602C445.735 360.602 445.432 360.658 445.171 360.77C444.909 360.882 444.69 361.036 444.513 361.232C444.335 361.428 444.195 361.657 444.093 361.918C443.99 362.17 443.925 362.436 443.897 362.716H448.167ZM454.002 360.602C453.834 360.602 453.661 360.616 453.484 360.644C453.316 360.663 453.148 360.709 452.98 360.784C452.821 360.849 452.681 360.952 452.56 361.092C452.448 361.223 452.387 361.4 452.378 361.624C452.378 361.941 452.495 362.179 452.728 362.338C452.971 362.497 453.283 362.613 453.666 362.688C453.825 362.725 453.997 362.763 454.184 362.8C454.371 362.828 454.553 362.861 454.73 362.898C454.917 362.926 455.089 362.959 455.248 362.996C455.416 363.033 455.556 363.071 455.668 363.108C456.564 363.388 457.012 363.99 457.012 364.914C457.003 365.362 456.905 365.726 456.718 366.006C456.541 366.277 456.312 366.491 456.032 366.65C455.761 366.809 455.449 366.921 455.094 366.986C454.749 367.051 454.403 367.084 454.058 367.084C453.722 367.084 453.381 367.051 453.036 366.986C452.691 366.921 452.373 366.809 452.084 366.65C451.804 366.482 451.561 366.267 451.356 366.006C451.16 365.735 451.034 365.399 450.978 364.998H452.182C452.257 365.222 452.373 365.399 452.532 365.53C452.691 365.661 452.859 365.763 453.036 365.838C453.223 365.913 453.395 365.964 453.554 365.992C453.722 366.02 453.909 366.034 454.114 366.034C454.263 366.034 454.436 366.025 454.632 366.006C454.828 365.987 455.015 365.945 455.192 365.88C455.369 365.805 455.519 365.698 455.64 365.558C455.761 365.418 455.822 365.222 455.822 364.97C455.822 364.69 455.729 364.48 455.542 364.34C455.365 364.2 455.117 364.097 454.8 364.032C454.576 363.985 454.343 363.943 454.1 363.906C453.867 363.859 453.629 363.813 453.386 363.766C453.153 363.71 452.924 363.649 452.7 363.584C452.476 363.509 452.266 363.411 452.07 363.29C451.809 363.131 451.599 362.917 451.44 362.646C451.281 362.375 451.202 362.044 451.202 361.652C451.221 361.241 451.314 360.905 451.482 360.644C451.65 360.373 451.865 360.154 452.126 359.986C452.406 359.818 452.705 359.701 453.022 359.636C453.339 359.571 453.675 359.538 454.03 359.538C454.786 359.538 455.388 359.701 455.836 360.028C456.107 360.215 456.317 360.439 456.466 360.7C456.615 360.961 456.709 361.237 456.746 361.526H455.64C455.575 361.255 455.397 361.036 455.108 360.868C454.819 360.7 454.45 360.611 454.002 360.602ZM460.618 359.622H462.592V360.672H460.618V364.494C460.618 364.998 460.716 365.371 460.912 365.614C461.108 365.847 461.472 365.964 462.004 365.964H462.55V367H461.752C460.912 367 460.315 366.809 459.96 366.426C459.606 366.043 459.428 365.441 459.428 364.62V360.672H458.224V359.622H459.428V357.424H460.618V359.622Z" fill="#E5E5E5"></path> <path d="M31.218 46V36.102H32.772L37.938 44.348V36.102H39.156V46H37.63L32.436 37.782V46H31.218ZM42.639 42.752C42.667 43.0787 42.7323 43.382 42.835 43.662C42.947 43.9327 43.0963 44.1707 43.283 44.376C43.4696 44.5813 43.6983 44.7447 43.969 44.866C44.249 44.978 44.571 45.034 44.935 45.034C45.1123 45.034 45.2943 45.02 45.481 44.992C45.677 44.9547 45.859 44.8987 46.027 44.824C46.195 44.74 46.3443 44.6327 46.475 44.502C46.6056 44.3713 46.7036 44.2127 46.769 44.026H47.987C47.903 44.3807 47.7583 44.6887 47.553 44.95C47.357 45.2113 47.119 45.426 46.839 45.594C46.5683 45.762 46.265 45.888 45.929 45.972C45.593 46.0467 45.2523 46.084 44.907 46.084C44.319 46.084 43.8056 45.9907 43.367 45.804C42.9376 45.6173 42.5783 45.3607 42.289 45.034C41.9996 44.698 41.785 44.3013 41.645 43.844C41.505 43.3773 41.435 42.8687 41.435 42.318C41.435 41.7673 41.5096 41.2633 41.659 40.806C41.8176 40.3393 42.0416 39.938 42.331 39.602C42.6203 39.266 42.975 39.0047 43.395 38.818C43.815 38.6313 44.3143 38.538 44.893 38.538C45.481 38.538 45.9896 38.6547 46.419 38.888C46.8483 39.1213 47.1936 39.4293 47.455 39.812C47.7163 40.1853 47.8983 40.5913 48.001 41.03C48.113 41.4687 48.1596 41.8747 48.141 42.248C48.141 42.332 48.1363 42.416 48.127 42.5C48.127 42.584 48.1223 42.668 48.113 42.752H42.639ZM46.937 41.716C46.9183 41.0907 46.7223 40.582 46.349 40.19C45.9756 39.798 45.4763 39.602 44.851 39.602C44.5056 39.602 44.2023 39.658 43.941 39.77C43.6796 39.882 43.4603 40.036 43.283 40.232C43.1056 40.428 42.9656 40.6567 42.863 40.918C42.7603 41.17 42.695 41.436 42.667 41.716H46.937ZM53.3883 38.538C53.9763 38.538 54.485 38.6313 54.9143 38.818C55.3437 39.0047 55.703 39.266 55.9923 39.602C56.291 39.938 56.5103 40.3393 56.6503 40.806C56.7997 41.2633 56.8743 41.7673 56.8743 42.318C56.8743 42.8687 56.7997 43.3773 56.6503 43.844C56.5103 44.3013 56.291 44.698 55.9923 45.034C55.703 45.3607 55.339 45.6173 54.9003 45.804C54.4617 45.9907 53.9483 46.084 53.3603 46.084C52.7723 46.084 52.259 45.9907 51.8203 45.804C51.391 45.6173 51.027 45.3607 50.7283 45.034C50.439 44.698 50.2197 44.3013 50.0703 43.844C49.9303 43.3773 49.8603 42.8687 49.8603 42.318C49.8603 41.7673 49.9303 41.2633 50.0703 40.806C50.2197 40.3393 50.439 39.938 50.7283 39.602C51.027 39.266 51.4003 39.0047 51.8483 38.818C52.2963 38.6313 52.8097 38.538 53.3883 38.538ZM53.3603 45.034C53.7617 45.034 54.107 44.964 54.3963 44.824C54.695 44.684 54.9377 44.4927 55.1243 44.25C55.3203 43.998 55.4603 43.7087 55.5443 43.382C55.6377 43.0553 55.6843 42.7007 55.6843 42.318C55.6843 41.9447 55.6377 41.5947 55.5443 41.268C55.4603 40.932 55.3203 40.6427 55.1243 40.4C54.9377 40.148 54.695 39.952 54.3963 39.812C54.107 39.672 53.7617 39.602 53.3603 39.602C52.959 39.602 52.6137 39.672 52.3243 39.812C52.035 39.952 51.7923 40.148 51.5963 40.4C51.4097 40.6427 51.2697 40.932 51.1763 41.268C51.0923 41.5947 51.0503 41.9447 51.0503 42.318C51.0503 42.7007 51.0923 43.0553 51.1763 43.382C51.2697 43.7087 51.4097 43.998 51.5963 44.25C51.7923 44.4927 52.035 44.684 52.3243 44.824C52.6137 44.964 52.959 45.034 53.3603 45.034ZM67.268 37.096C66.6893 37.096 66.1946 37.1987 65.784 37.404C65.3733 37.6093 65.0373 37.894 64.776 38.258C64.5146 38.6127 64.3233 39.0327 64.202 39.518C64.0806 39.994 64.02 40.5073 64.02 41.058C64.02 41.6087 64.0853 42.122 64.216 42.598C64.3466 43.074 64.5426 43.494 64.804 43.858C65.0746 44.2127 65.4153 44.4927 65.826 44.698C66.246 44.9033 66.7453 45.006 67.324 45.006C68.3133 45.006 69.0553 44.7447 69.55 44.222C69.8393 43.9233 70.0446 43.6013 70.166 43.256C70.2873 42.9107 70.348 42.528 70.348 42.108H67.1V41.002H71.51V41.828C71.51 42.0987 71.4866 42.3787 71.44 42.668C71.3933 42.9573 71.3233 43.242 71.23 43.522C71.1366 43.7927 71.0153 44.054 70.866 44.306C70.726 44.5487 70.558 44.768 70.362 44.964C69.9886 45.3187 69.5453 45.5987 69.032 45.804C68.528 46.0093 67.954 46.112 67.31 46.112C66.5353 46.112 65.8633 45.986 65.294 45.734C64.734 45.482 64.2626 45.1367 63.88 44.698C63.5066 44.25 63.2266 43.718 63.04 43.102C62.8626 42.486 62.774 41.814 62.774 41.086C62.774 40.358 62.8626 39.686 63.04 39.07C63.2266 38.4447 63.502 37.908 63.866 37.46C64.2393 37.0027 64.706 36.6433 65.266 36.382C65.8353 36.1207 66.5073 35.99 67.282 35.99C68.374 35.99 69.256 36.2373 69.928 36.732C70.6 37.2173 71.0433 37.8707 71.258 38.692H69.928C69.788 38.2067 69.4846 37.8193 69.018 37.53C68.5513 37.2407 67.968 37.096 67.268 37.096ZM73.5161 46V38.622H74.6641L74.7201 39.77C74.9908 39.3407 75.3361 39.028 75.7561 38.832C76.1761 38.636 76.6521 38.538 77.1841 38.538H77.5621V39.658H77.1281C76.6895 39.658 76.3161 39.7327 76.0081 39.882C75.7001 40.022 75.4481 40.218 75.2521 40.47C75.0655 40.7127 74.9255 41.002 74.8321 41.338C74.7481 41.674 74.7061 42.0287 74.7061 42.402V46H73.5161ZM82.2501 38.538C82.8381 38.538 83.3467 38.6313 83.7761 38.818C84.2054 39.0047 84.5647 39.266 84.8541 39.602C85.1527 39.938 85.3721 40.3393 85.5121 40.806C85.6614 41.2633 85.7361 41.7673 85.7361 42.318C85.7361 42.8687 85.6614 43.3773 85.5121 43.844C85.3721 44.3013 85.1527 44.698 84.8541 45.034C84.5647 45.3607 84.2007 45.6173 83.7621 45.804C83.3234 45.9907 82.8101 46.084 82.2221 46.084C81.6341 46.084 81.1207 45.9907 80.6821 45.804C80.2527 45.6173 79.8887 45.3607 79.5901 45.034C79.3007 44.698 79.0814 44.3013 78.9321 43.844C78.7921 43.3773 78.7221 42.8687 78.7221 42.318C78.7221 41.7673 78.7921 41.2633 78.9321 40.806C79.0814 40.3393 79.3007 39.938 79.5901 39.602C79.8887 39.266 80.2621 39.0047 80.7101 38.818C81.1581 38.6313 81.6714 38.538 82.2501 38.538ZM82.2221 45.034C82.6234 45.034 82.9687 44.964 83.2581 44.824C83.5567 44.684 83.7994 44.4927 83.9861 44.25C84.1821 43.998 84.3221 43.7087 84.4061 43.382C84.4994 43.0553 84.5461 42.7007 84.5461 42.318C84.5461 41.9447 84.4994 41.5947 84.4061 41.268C84.3221 40.932 84.1821 40.6427 83.9861 40.4C83.7994 40.148 83.5567 39.952 83.2581 39.812C82.9687 39.672 82.6234 39.602 82.2221 39.602C81.8207 39.602 81.4754 39.672 81.1861 39.812C80.8967 39.952 80.6541 40.148 80.4581 40.4C80.2714 40.6427 80.1314 40.932 80.0381 41.268C79.9541 41.5947 79.9121 41.9447 79.9121 42.318C79.9121 42.7007 79.9541 43.0553 80.0381 43.382C80.1314 43.7087 80.2714 43.998 80.4581 44.25C80.6541 44.4927 80.8967 44.684 81.1861 44.824C81.4754 44.964 81.8207 45.034 82.2221 45.034ZM89.5902 38.622H91.8582V39.672H89.5902V43.508C89.5902 43.7227 89.5996 43.9233 89.6182 44.11C89.6462 44.2873 89.6929 44.446 89.7582 44.586C89.8329 44.7167 89.9356 44.824 90.0662 44.908C90.2062 44.9827 90.3929 45.0247 90.6262 45.034C90.8409 45.034 91.0276 44.9967 91.1862 44.922C91.3542 44.8473 91.4942 44.7587 91.6062 44.656L92.1242 45.524C91.8816 45.7293 91.6296 45.874 91.3682 45.958C91.1069 46.042 90.8176 46.084 90.5002 46.084C90.0989 46.084 89.7629 46.028 89.4922 45.916C89.2216 45.7947 88.9929 45.622 88.8062 45.398C88.6476 45.1833 88.5402 44.9313 88.4842 44.642C88.4282 44.3527 88.4002 44.026 88.4002 43.662V39.672H87.1962V38.622H88.4002V36.41H89.5902V38.622ZM94.603 42.752C94.631 43.0787 94.6963 43.382 94.799 43.662C94.911 43.9327 95.0603 44.1707 95.247 44.376C95.4337 44.5813 95.6623 44.7447 95.933 44.866C96.213 44.978 96.535 45.034 96.899 45.034C97.0763 45.034 97.2583 45.02 97.445 44.992C97.641 44.9547 97.823 44.8987 97.991 44.824C98.159 44.74 98.3083 44.6327 98.439 44.502C98.5697 44.3713 98.6677 44.2127 98.733 44.026H99.951C99.867 44.3807 99.7224 44.6887 99.517 44.95C99.321 45.2113 99.083 45.426 98.803 45.594C98.5323 45.762 98.229 45.888 97.893 45.972C97.557 46.0467 97.2163 46.084 96.871 46.084C96.283 46.084 95.7697 45.9907 95.331 45.804C94.9017 45.6173 94.5423 45.3607 94.253 45.034C93.9637 44.698 93.749 44.3013 93.609 43.844C93.469 43.3773 93.399 42.8687 93.399 42.318C93.399 41.7673 93.4737 41.2633 93.623 40.806C93.7817 40.3393 94.0057 39.938 94.295 39.602C94.5843 39.266 94.939 39.0047 95.359 38.818C95.779 38.6313 96.2783 38.538 96.857 38.538C97.445 38.538 97.9537 38.6547 98.383 38.888C98.8124 39.1213 99.1577 39.4293 99.419 39.812C99.6803 40.1853 99.8623 40.5913 99.965 41.03C100.077 41.4687 100.124 41.8747 100.105 42.248C100.105 42.332 100.1 42.416 100.091 42.5C100.091 42.584 100.086 42.668 100.077 42.752H94.603ZM98.901 41.716C98.8824 41.0907 98.6864 40.582 98.313 40.19C97.9397 39.798 97.4403 39.602 96.815 39.602C96.4697 39.602 96.1663 39.658 95.905 39.77C95.6437 39.882 95.4243 40.036 95.247 40.232C95.0697 40.428 94.9297 40.6567 94.827 40.918C94.7243 41.17 94.659 41.436 94.631 41.716H98.901ZM104.736 39.602C104.568 39.602 104.396 39.616 104.218 39.644C104.05 39.6627 103.882 39.7093 103.714 39.784C103.556 39.8493 103.416 39.952 103.294 40.092C103.182 40.2227 103.122 40.4 103.112 40.624C103.112 40.9413 103.229 41.1793 103.462 41.338C103.705 41.4967 104.018 41.6133 104.4 41.688C104.559 41.7253 104.732 41.7627 104.918 41.8C105.105 41.828 105.287 41.8607 105.464 41.898C105.651 41.926 105.824 41.9587 105.982 41.996C106.15 42.0333 106.29 42.0707 106.402 42.108C107.298 42.388 107.746 42.99 107.746 43.914C107.737 44.362 107.639 44.726 107.452 45.006C107.275 45.2767 107.046 45.4913 106.766 45.65C106.496 45.8087 106.183 45.9207 105.828 45.986C105.483 46.0513 105.138 46.084 104.792 46.084C104.456 46.084 104.116 46.0513 103.77 45.986C103.425 45.9207 103.108 45.8087 102.818 45.65C102.538 45.482 102.296 45.2673 102.09 45.006C101.894 44.7353 101.768 44.3993 101.712 43.998H102.916C102.991 44.222 103.108 44.3993 103.266 44.53C103.425 44.6607 103.593 44.7633 103.77 44.838C103.957 44.9127 104.13 44.964 104.288 44.992C104.456 45.02 104.643 45.034 104.848 45.034C104.998 45.034 105.17 45.0247 105.366 45.006C105.562 44.9873 105.749 44.9453 105.926 44.88C106.104 44.8053 106.253 44.698 106.374 44.558C106.496 44.418 106.556 44.222 106.556 43.97C106.556 43.69 106.463 43.48 106.276 43.34C106.099 43.2 105.852 43.0973 105.534 43.032C105.31 42.9853 105.077 42.9433 104.834 42.906C104.601 42.8593 104.363 42.8127 104.12 42.766C103.887 42.71 103.658 42.6493 103.434 42.584C103.21 42.5093 103 42.4113 102.804 42.29C102.543 42.1313 102.333 41.9167 102.174 41.646C102.016 41.3753 101.936 41.044 101.936 40.652C101.955 40.2413 102.048 39.9053 102.216 39.644C102.384 39.3733 102.599 39.154 102.86 38.986C103.14 38.818 103.439 38.7013 103.756 38.636C104.074 38.5707 104.41 38.538 104.764 38.538C105.52 38.538 106.122 38.7013 106.57 39.028C106.841 39.2147 107.051 39.4387 107.2 39.7C107.35 39.9613 107.443 40.2367 107.48 40.526H106.374C106.309 40.2553 106.132 40.036 105.842 39.868C105.553 39.7 105.184 39.6113 104.736 39.602ZM109.627 46V36.102H110.817V41.8H112.105L114.317 38.622H115.661L113.197 42.136L115.871 46H114.471L112.245 42.836H110.817V46H109.627Z" fill="#0088F4"></path> <path d="M35.166 645.096C34.5873 645.096 34.0927 645.199 33.682 645.404C33.2713 645.609 32.9353 645.894 32.674 646.258C32.4127 646.613 32.2213 647.033 32.1 647.518C31.9787 647.994 31.918 648.507 31.918 649.058C31.918 649.609 31.9833 650.122 32.114 650.598C32.2447 651.074 32.4407 651.494 32.702 651.858C32.9727 652.213 33.3133 652.493 33.724 652.698C34.144 652.903 34.6433 653.006 35.222 653.006C36.2113 653.006 36.9533 652.745 37.448 652.222C37.7373 651.923 37.9427 651.601 38.064 651.256C38.1853 650.911 38.246 650.528 38.246 650.108H34.998V649.002H39.408V649.828C39.408 650.099 39.3847 650.379 39.338 650.668C39.2913 650.957 39.2213 651.242 39.128 651.522C39.0347 651.793 38.9133 652.054 38.764 652.306C38.624 652.549 38.456 652.768 38.26 652.964C37.8867 653.319 37.4433 653.599 36.93 653.804C36.426 654.009 35.852 654.112 35.208 654.112C34.4333 654.112 33.7613 653.986 33.192 653.734C32.632 653.482 32.1607 653.137 31.778 652.698C31.4047 652.25 31.1247 651.718 30.938 651.102C30.7607 650.486 30.672 649.814 30.672 649.086C30.672 648.358 30.7607 647.686 30.938 647.07C31.1247 646.445 31.4 645.908 31.764 645.46C32.1373 645.003 32.604 644.643 33.164 644.382C33.7333 644.121 34.4053 643.99 35.18 643.99C36.272 643.99 37.154 644.237 37.826 644.732C38.498 645.217 38.9413 645.871 39.156 646.692H37.826C37.686 646.207 37.3827 645.819 36.916 645.53C36.4493 645.241 35.866 645.096 35.166 645.096ZM42.3382 650.752C42.3662 651.079 42.4315 651.382 42.5342 651.662C42.6462 651.933 42.7955 652.171 42.9822 652.376C43.1688 652.581 43.3975 652.745 43.6682 652.866C43.9482 652.978 44.2702 653.034 44.6342 653.034C44.8115 653.034 44.9935 653.02 45.1802 652.992C45.3762 652.955 45.5582 652.899 45.7262 652.824C45.8942 652.74 46.0435 652.633 46.1742 652.502C46.3048 652.371 46.4028 652.213 46.4682 652.026H47.6862C47.6022 652.381 47.4575 652.689 47.2522 652.95C47.0562 653.211 46.8182 653.426 46.5382 653.594C46.2675 653.762 45.9642 653.888 45.6282 653.972C45.2922 654.047 44.9515 654.084 44.6062 654.084C44.0182 654.084 43.5048 653.991 43.0662 653.804C42.6368 653.617 42.2775 653.361 41.9882 653.034C41.6988 652.698 41.4842 652.301 41.3442 651.844C41.2042 651.377 41.1342 650.869 41.1342 650.318C41.1342 649.767 41.2088 649.263 41.3582 648.806C41.5168 648.339 41.7408 647.938 42.0302 647.602C42.3195 647.266 42.6742 647.005 43.0942 646.818C43.5142 646.631 44.0135 646.538 44.5922 646.538C45.1802 646.538 45.6888 646.655 46.1182 646.888C46.5475 647.121 46.8928 647.429 47.1542 647.812C47.4155 648.185 47.5975 648.591 47.7002 649.03C47.8122 649.469 47.8588 649.875 47.8402 650.248C47.8402 650.332 47.8355 650.416 47.8262 650.5C47.8262 650.584 47.8215 650.668 47.8122 650.752H42.3382ZM46.6362 649.716C46.6175 649.091 46.4215 648.582 46.0482 648.19C45.6748 647.798 45.1755 647.602 44.5502 647.602C44.2048 647.602 43.9015 647.658 43.6402 647.77C43.3788 647.882 43.1595 648.036 42.9822 648.232C42.8048 648.428 42.6648 648.657 42.5622 648.918C42.4595 649.17 42.3942 649.436 42.3662 649.716H46.6362ZM53.0876 646.538C53.6756 646.538 54.1842 646.631 54.6136 646.818C55.0429 647.005 55.4022 647.266 55.6916 647.602C55.9902 647.938 56.2096 648.339 56.3496 648.806C56.4989 649.263 56.5736 649.767 56.5736 650.318C56.5736 650.869 56.4989 651.377 56.3496 651.844C56.2096 652.301 55.9902 652.698 55.6916 653.034C55.4022 653.361 55.0382 653.617 54.5996 653.804C54.1609 653.991 53.6476 654.084 53.0596 654.084C52.4716 654.084 51.9582 653.991 51.5196 653.804C51.0902 653.617 50.7262 653.361 50.4276 653.034C50.1382 652.698 49.9189 652.301 49.7696 651.844C49.6296 651.377 49.5596 650.869 49.5596 650.318C49.5596 649.767 49.6296 649.263 49.7696 648.806C49.9189 648.339 50.1382 647.938 50.4276 647.602C50.7262 647.266 51.0996 647.005 51.5476 646.818C51.9956 646.631 52.5089 646.538 53.0876 646.538ZM53.0596 653.034C53.4609 653.034 53.8062 652.964 54.0956 652.824C54.3942 652.684 54.6369 652.493 54.8236 652.25C55.0196 651.998 55.1596 651.709 55.2436 651.382C55.3369 651.055 55.3836 650.701 55.3836 650.318C55.3836 649.945 55.3369 649.595 55.2436 649.268C55.1596 648.932 55.0196 648.643 54.8236 648.4C54.6369 648.148 54.3942 647.952 54.0956 647.812C53.8062 647.672 53.4609 647.602 53.0596 647.602C52.6582 647.602 52.3129 647.672 52.0236 647.812C51.7342 647.952 51.4916 648.148 51.2956 648.4C51.1089 648.643 50.9689 648.932 50.8756 649.268C50.7916 649.595 50.7496 649.945 50.7496 650.318C50.7496 650.701 50.7916 651.055 50.8756 651.382C50.9689 651.709 51.1089 651.998 51.2956 652.25C51.4916 652.493 51.7342 652.684 52.0236 652.824C52.3129 652.964 52.6582 653.034 53.0596 653.034ZM59.7697 647.504C60.0031 647.177 60.2877 646.935 60.6237 646.776C60.9691 646.617 61.3517 646.538 61.7717 646.538C62.2851 646.547 62.7004 646.659 63.0177 646.874C63.3351 647.089 63.5731 647.373 63.7317 647.728C63.9837 647.355 64.2917 647.065 64.6557 646.86C65.0291 646.645 65.4677 646.538 65.9717 646.538C66.3731 646.538 66.7184 646.608 67.0077 646.748C67.2971 646.879 67.5304 647.065 67.7077 647.308C67.8851 647.541 68.0157 647.817 68.0997 648.134C68.1837 648.451 68.2257 648.797 68.2257 649.17V654H67.0357V649.772C67.0357 649.529 67.0217 649.282 66.9937 649.03C66.9751 648.769 66.9191 648.535 66.8257 648.33C66.7324 648.115 66.5924 647.943 66.4057 647.812C66.2191 647.672 65.9671 647.602 65.6497 647.602C65.3417 647.602 65.0804 647.677 64.8657 647.826C64.6511 647.966 64.4784 648.153 64.3477 648.386C64.2264 648.619 64.1377 648.876 64.0817 649.156C64.0257 649.436 63.9977 649.711 63.9977 649.982V654H62.8077V649.758C62.8077 649.525 62.7984 649.282 62.7797 649.03C62.7611 648.769 62.7051 648.535 62.6117 648.33C62.5277 648.115 62.3971 647.943 62.2197 647.812C62.0424 647.672 61.7951 647.602 61.4777 647.602C61.1417 647.602 60.8617 647.677 60.6377 647.826C60.4231 647.975 60.2457 648.167 60.1057 648.4C59.9751 648.633 59.8817 648.895 59.8257 649.184C59.7791 649.464 59.7557 649.735 59.7557 649.996V654H58.5657V646.622H59.7137L59.7697 647.504ZM71.3604 650.752C71.3884 651.079 71.4538 651.382 71.5564 651.662C71.6684 651.933 71.8178 652.171 72.0044 652.376C72.1911 652.581 72.4198 652.745 72.6904 652.866C72.9704 652.978 73.2924 653.034 73.6564 653.034C73.8338 653.034 74.0158 653.02 74.2024 652.992C74.3984 652.955 74.5804 652.899 74.7484 652.824C74.9164 652.74 75.0658 652.633 75.1964 652.502C75.3271 652.371 75.4251 652.213 75.4904 652.026H76.7084C76.6244 652.381 76.4798 652.689 76.2744 652.95C76.0784 653.211 75.8404 653.426 75.5604 653.594C75.2898 653.762 74.9864 653.888 74.6504 653.972C74.3144 654.047 73.9738 654.084 73.6284 654.084C73.0404 654.084 72.5271 653.991 72.0884 653.804C71.6591 653.617 71.2998 653.361 71.0104 653.034C70.7211 652.698 70.5064 652.301 70.3664 651.844C70.2264 651.377 70.1564 650.869 70.1564 650.318C70.1564 649.767 70.2311 649.263 70.3804 648.806C70.5391 648.339 70.7631 647.938 71.0524 647.602C71.3418 647.266 71.6964 647.005 72.1164 646.818C72.5364 646.631 73.0358 646.538 73.6144 646.538C74.2024 646.538 74.7111 646.655 75.1404 646.888C75.5698 647.121 75.9151 647.429 76.1764 647.812C76.4378 648.185 76.6198 648.591 76.7224 649.03C76.8344 649.469 76.8811 649.875 76.8624 650.248C76.8624 650.332 76.8578 650.416 76.8484 650.5C76.8484 650.584 76.8438 650.668 76.8344 650.752H71.3604ZM75.6584 649.716C75.6398 649.091 75.4438 648.582 75.0704 648.19C74.6971 647.798 74.1978 647.602 73.5724 647.602C73.2271 647.602 72.9238 647.658 72.6624 647.77C72.4011 647.882 72.1818 648.036 72.0044 648.232C71.8271 648.428 71.6871 648.657 71.5844 648.918C71.4818 649.17 71.4164 649.436 71.3884 649.716H75.6584ZM80.7238 646.622H82.6978V647.672H80.7238V651.494C80.7238 651.998 80.8218 652.371 81.0178 652.614C81.2138 652.847 81.5778 652.964 82.1098 652.964H82.6558V654H81.8578C81.0178 654 80.4205 653.809 80.0658 653.426C79.7112 653.043 79.5338 652.441 79.5338 651.62V647.672H78.3298V646.622H79.5338V644.424H80.7238V646.622ZM84.4435 654V646.622H85.5915L85.6475 647.77C85.9181 647.341 86.2635 647.028 86.6835 646.832C87.1035 646.636 87.5795 646.538 88.1115 646.538H88.4895V647.658H88.0555C87.6168 647.658 87.2435 647.733 86.9355 647.882C86.6275 648.022 86.3755 648.218 86.1795 648.47C85.9928 648.713 85.8528 649.002 85.7595 649.338C85.6755 649.674 85.6335 650.029 85.6335 650.402V654H84.4435ZM90.7521 643.92C90.9761 643.92 91.1675 643.995 91.3261 644.144C91.4848 644.284 91.5641 644.471 91.5641 644.704C91.5641 644.937 91.4848 645.129 91.3261 645.278C91.1675 645.427 90.9761 645.502 90.7521 645.502C90.5188 645.502 90.3275 645.427 90.1781 645.278C90.0288 645.129 89.9541 644.937 89.9541 644.704C89.9541 644.471 90.0288 644.284 90.1781 644.144C90.3275 643.995 90.5188 643.92 90.7521 643.92ZM90.1641 654V646.622H91.3541V654H90.1641ZM96.8837 654.084C96.2957 654.084 95.787 653.991 95.3577 653.804C94.9284 653.617 94.5737 653.356 94.2937 653.02C94.0137 652.684 93.8037 652.287 93.6637 651.83C93.5237 651.373 93.4537 650.873 93.4537 650.332C93.4537 649.809 93.5284 649.319 93.6777 648.862C93.827 648.395 94.0464 647.994 94.3357 647.658C94.625 647.313 94.989 647.042 95.4277 646.846C95.8664 646.641 96.3984 646.538 97.0237 646.538C97.397 646.538 97.7284 646.58 98.0177 646.664C98.307 646.739 98.5777 646.865 98.8297 647.042C99.091 647.21 99.315 647.434 99.5017 647.714C99.6884 647.994 99.8237 648.335 99.9077 648.736H98.6897C98.5497 648.325 98.3257 648.031 98.0177 647.854C97.719 647.677 97.3644 647.593 96.9537 647.602C96.5524 647.602 96.1977 647.681 95.8897 647.84C95.591 647.989 95.3484 648.19 95.1617 648.442C94.9844 648.694 94.8537 648.988 94.7697 649.324C94.6857 649.651 94.6437 649.987 94.6437 650.332C94.6437 650.696 94.6857 651.041 94.7697 651.368C94.863 651.695 94.9984 651.984 95.1757 652.236C95.3624 652.479 95.6004 652.675 95.8897 652.824C96.179 652.964 96.5244 653.034 96.9257 653.034C97.1217 653.034 97.313 653.015 97.4997 652.978C97.6957 652.941 97.873 652.88 98.0317 652.796C98.1997 652.703 98.3444 652.581 98.4657 652.432C98.587 652.283 98.6757 652.101 98.7317 651.886H99.9637C99.889 652.269 99.7537 652.6 99.5577 652.88C99.371 653.151 99.1377 653.379 98.8577 653.566C98.5777 653.743 98.2697 653.874 97.9337 653.958C97.5977 654.042 97.2477 654.084 96.8837 654.084ZM106.73 653.062C106.571 653.277 106.389 653.449 106.184 653.58C105.979 653.711 105.764 653.813 105.54 653.888C105.325 653.963 105.106 654.014 104.882 654.042C104.667 654.07 104.453 654.084 104.238 654.084C103.893 654.084 103.566 654.042 103.258 653.958C102.95 653.874 102.67 653.739 102.418 653.552C102.175 653.365 101.979 653.132 101.83 652.852C101.69 652.572 101.62 652.255 101.62 651.9C101.62 651.48 101.695 651.13 101.844 650.85C102.003 650.561 102.213 650.327 102.474 650.15C102.735 649.973 103.034 649.851 103.37 649.786C103.715 649.711 104.079 649.674 104.462 649.674H106.632C106.632 649.049 106.497 648.554 106.226 648.19C105.955 647.817 105.498 647.621 104.854 647.602C104.462 647.602 104.117 647.667 103.818 647.798C103.519 647.929 103.314 648.143 103.202 648.442H101.928C101.993 648.106 102.124 647.821 102.32 647.588C102.516 647.345 102.749 647.149 103.02 647C103.291 646.841 103.585 646.725 103.902 646.65C104.219 646.575 104.537 646.538 104.854 646.538C105.405 646.538 105.867 646.631 106.24 646.818C106.623 646.995 106.931 647.233 107.164 647.532C107.397 647.821 107.561 648.176 107.654 648.596C107.747 649.016 107.794 649.487 107.794 650.01V654H106.8L106.73 653.062ZM105.33 650.668C105.106 650.668 104.845 650.673 104.546 650.682C104.257 650.682 103.977 650.71 103.706 650.766C103.435 650.822 103.216 650.939 103.048 651.116C102.889 651.293 102.81 651.527 102.81 651.816C102.81 652.031 102.852 652.213 102.936 652.362C103.02 652.511 103.132 652.637 103.272 652.74C103.421 652.843 103.589 652.917 103.776 652.964C103.963 653.011 104.154 653.034 104.35 653.034C105.05 653.034 105.601 652.866 106.002 652.53C106.413 652.185 106.623 651.685 106.632 651.032V650.668H105.33ZM110.038 654V644.102H111.228V654H110.038ZM121.902 645.096C121.323 645.096 120.828 645.199 120.418 645.404C120.007 645.609 119.671 645.894 119.41 646.258C119.148 646.613 118.957 647.033 118.836 647.518C118.714 647.994 118.654 648.507 118.654 649.058C118.654 649.609 118.719 650.122 118.85 650.598C118.98 651.074 119.176 651.494 119.438 651.858C119.708 652.213 120.049 652.493 120.46 652.698C120.88 652.903 121.379 653.006 121.958 653.006C122.947 653.006 123.689 652.745 124.184 652.222C124.473 651.923 124.678 651.601 124.8 651.256C124.921 650.911 124.982 650.528 124.982 650.108H121.734V649.002H126.144V649.828C126.144 650.099 126.12 650.379 126.074 650.668C126.027 650.957 125.957 651.242 125.864 651.522C125.77 651.793 125.649 652.054 125.5 652.306C125.36 652.549 125.192 652.768 124.996 652.964C124.622 653.319 124.179 653.599 123.666 653.804C123.162 654.009 122.588 654.112 121.944 654.112C121.169 654.112 120.497 653.986 119.928 653.734C119.368 653.482 118.896 653.137 118.514 652.698C118.14 652.25 117.86 651.718 117.674 651.102C117.496 650.486 117.408 649.814 117.408 649.086C117.408 648.358 117.496 647.686 117.674 647.07C117.86 646.445 118.136 645.908 118.5 645.46C118.873 645.003 119.34 644.643 119.9 644.382C120.469 644.121 121.141 643.99 121.916 643.99C123.008 643.99 123.89 644.237 124.562 644.732C125.234 645.217 125.677 645.871 125.892 646.692H124.562C124.422 646.207 124.118 645.819 123.652 645.53C123.185 645.241 122.602 645.096 121.902 645.096ZM128.15 654V646.622H129.298L129.354 647.77C129.624 647.341 129.97 647.028 130.39 646.832C130.81 646.636 131.286 646.538 131.818 646.538H132.196V647.658H131.762C131.323 647.658 130.95 647.733 130.642 647.882C130.334 648.022 130.082 648.218 129.886 648.47C129.699 648.713 129.559 649.002 129.466 649.338C129.382 649.674 129.34 650.029 129.34 650.402V654H128.15ZM136.884 646.538C137.472 646.538 137.98 646.631 138.41 646.818C138.839 647.005 139.198 647.266 139.488 647.602C139.786 647.938 140.006 648.339 140.146 648.806C140.295 649.263 140.37 649.767 140.37 650.318C140.37 650.869 140.295 651.377 140.146 651.844C140.006 652.301 139.786 652.698 139.488 653.034C139.198 653.361 138.834 653.617 138.396 653.804C137.957 653.991 137.444 654.084 136.856 654.084C136.268 654.084 135.754 653.991 135.316 653.804C134.886 653.617 134.522 653.361 134.224 653.034C133.934 652.698 133.715 652.301 133.566 651.844C133.426 651.377 133.356 650.869 133.356 650.318C133.356 649.767 133.426 649.263 133.566 648.806C133.715 648.339 133.934 647.938 134.224 647.602C134.522 647.266 134.896 647.005 135.344 646.818C135.792 646.631 136.305 646.538 136.884 646.538ZM136.856 653.034C137.257 653.034 137.602 652.964 137.892 652.824C138.19 652.684 138.433 652.493 138.62 652.25C138.816 651.998 138.956 651.709 139.04 651.382C139.133 651.055 139.18 650.701 139.18 650.318C139.18 649.945 139.133 649.595 139.04 649.268C138.956 648.932 138.816 648.643 138.62 648.4C138.433 648.148 138.19 647.952 137.892 647.812C137.602 647.672 137.257 647.602 136.856 647.602C136.454 647.602 136.109 647.672 135.82 647.812C135.53 647.952 135.288 648.148 135.092 648.4C134.905 648.643 134.765 648.932 134.672 649.268C134.588 649.595 134.546 649.945 134.546 650.318C134.546 650.701 134.588 651.055 134.672 651.382C134.765 651.709 134.905 651.998 135.092 652.25C135.288 652.493 135.53 652.684 135.82 652.824C136.109 652.964 136.454 653.034 136.856 653.034ZM144.224 646.622H146.492V647.672H144.224V651.508C144.224 651.723 144.233 651.923 144.252 652.11C144.28 652.287 144.326 652.446 144.392 652.586C144.466 652.717 144.569 652.824 144.7 652.908C144.84 652.983 145.026 653.025 145.26 653.034C145.474 653.034 145.661 652.997 145.82 652.922C145.988 652.847 146.128 652.759 146.24 652.656L146.758 653.524C146.515 653.729 146.263 653.874 146.002 653.958C145.74 654.042 145.451 654.084 145.134 654.084C144.732 654.084 144.396 654.028 144.126 653.916C143.855 653.795 143.626 653.622 143.44 653.398C143.281 653.183 143.174 652.931 143.118 652.642C143.062 652.353 143.034 652.026 143.034 651.662V647.672H141.83V646.622H143.034V644.41H144.224V646.622ZM149.237 650.752C149.265 651.079 149.33 651.382 149.433 651.662C149.545 651.933 149.694 652.171 149.881 652.376C150.067 652.581 150.296 652.745 150.567 652.866C150.847 652.978 151.169 653.034 151.533 653.034C151.71 653.034 151.892 653.02 152.079 652.992C152.275 652.955 152.457 652.899 152.625 652.824C152.793 652.74 152.942 652.633 153.073 652.502C153.203 652.371 153.301 652.213 153.367 652.026H154.585C154.501 652.381 154.356 652.689 154.151 652.95C153.955 653.211 153.717 653.426 153.437 653.594C153.166 653.762 152.863 653.888 152.527 653.972C152.191 654.047 151.85 654.084 151.505 654.084C150.917 654.084 150.403 653.991 149.965 653.804C149.535 653.617 149.176 653.361 148.887 653.034C148.597 652.698 148.383 652.301 148.243 651.844C148.103 651.377 148.033 650.869 148.033 650.318C148.033 649.767 148.107 649.263 148.257 648.806C148.415 648.339 148.639 647.938 148.929 647.602C149.218 647.266 149.573 647.005 149.993 646.818C150.413 646.631 150.912 646.538 151.491 646.538C152.079 646.538 152.587 646.655 153.017 646.888C153.446 647.121 153.791 647.429 154.053 647.812C154.314 648.185 154.496 648.591 154.599 649.03C154.711 649.469 154.757 649.875 154.739 650.248C154.739 650.332 154.734 650.416 154.725 650.5C154.725 650.584 154.72 650.668 154.711 650.752H149.237ZM153.535 649.716C153.516 649.091 153.32 648.582 152.947 648.19C152.573 647.798 152.074 647.602 151.449 647.602C151.103 647.602 150.8 647.658 150.539 647.77C150.277 647.882 150.058 648.036 149.881 648.232C149.703 648.428 149.563 648.657 149.461 648.918C149.358 649.17 149.293 649.436 149.265 649.716H153.535ZM159.37 647.602C159.202 647.602 159.029 647.616 158.852 647.644C158.684 647.663 158.516 647.709 158.348 647.784C158.189 647.849 158.049 647.952 157.928 648.092C157.816 648.223 157.755 648.4 157.746 648.624C157.746 648.941 157.863 649.179 158.096 649.338C158.339 649.497 158.651 649.613 159.034 649.688C159.193 649.725 159.365 649.763 159.552 649.8C159.739 649.828 159.921 649.861 160.098 649.898C160.285 649.926 160.457 649.959 160.616 649.996C160.784 650.033 160.924 650.071 161.036 650.108C161.932 650.388 162.38 650.99 162.38 651.914C162.371 652.362 162.273 652.726 162.086 653.006C161.909 653.277 161.68 653.491 161.4 653.65C161.129 653.809 160.817 653.921 160.462 653.986C160.117 654.051 159.771 654.084 159.426 654.084C159.09 654.084 158.749 654.051 158.404 653.986C158.059 653.921 157.741 653.809 157.452 653.65C157.172 653.482 156.929 653.267 156.724 653.006C156.528 652.735 156.402 652.399 156.346 651.998H157.55C157.625 652.222 157.741 652.399 157.9 652.53C158.059 652.661 158.227 652.763 158.404 652.838C158.591 652.913 158.763 652.964 158.922 652.992C159.09 653.02 159.277 653.034 159.482 653.034C159.631 653.034 159.804 653.025 160 653.006C160.196 652.987 160.383 652.945 160.56 652.88C160.737 652.805 160.887 652.698 161.008 652.558C161.129 652.418 161.19 652.222 161.19 651.97C161.19 651.69 161.097 651.48 160.91 651.34C160.733 651.2 160.485 651.097 160.168 651.032C159.944 650.985 159.711 650.943 159.468 650.906C159.235 650.859 158.997 650.813 158.754 650.766C158.521 650.71 158.292 650.649 158.068 650.584C157.844 650.509 157.634 650.411 157.438 650.29C157.177 650.131 156.967 649.917 156.808 649.646C156.649 649.375 156.57 649.044 156.57 648.652C156.589 648.241 156.682 647.905 156.85 647.644C157.018 647.373 157.233 647.154 157.494 646.986C157.774 646.818 158.073 646.701 158.39 646.636C158.707 646.571 159.043 646.538 159.398 646.538C160.154 646.538 160.756 646.701 161.204 647.028C161.475 647.215 161.685 647.439 161.834 647.7C161.983 647.961 162.077 648.237 162.114 648.526H161.008C160.943 648.255 160.765 648.036 160.476 647.868C160.187 647.7 159.818 647.611 159.37 647.602ZM164.261 654V644.102H165.451V649.8H166.739L168.951 646.622H170.295L167.831 650.136L170.505 654H169.105L166.879 650.836H165.451V654H164.261Z" fill="#0088F4"></path> </svg> 